# Blender 4.5.2 LTS
# www.blender.org
mtllib Untitled.mtl
o RetroMonitor
v -0.240000 0.060000 0.048000
v -0.240000 0.540000 0.048000
v 0.240000 0.060000 0.048000
v 0.240000 0.540000 0.048000
v -0.240000 0.060000 0.216000
v -0.240000 0.540000 0.216000
v 0.240000 0.060000 0.216000
v 0.240000 0.540000 0.216000
v -0.192000 0.108000 -0.072000
v -0.192000 0.492000 -0.072000
v 0.192000 0.108000 -0.072000
v 0.192000 0.492000 -0.072000
v -0.172800 0.127200 -0.288000
v -0.172800 0.472800 -0.288000
v 0.172800 0.127200 -0.288000
v 0.172800 0.472800 -0.288000
v 0.191148 0.483679 0.216000
v -0.194848 0.483679 0.216000
v 0.240000 0.155098 0.216000
v -0.240000 0.155098 0.216000
v 0.191148 0.155098 0.216000
v -0.194848 0.155098 0.216000
v 0.191148 0.483679 0.207000
v -0.194848 0.483679 0.207000
v 0.191148 0.155098 0.207000
v -0.194848 0.155098 0.207000
v -0.112500 0.112114 -0.112500
v -0.112500 0.112114 0.112500
v 0.112500 0.112114 -0.112500
v 0.112500 0.112114 0.112500
v -0.078750 0.015000 -0.078750
v -0.078750 0.015000 0.078750
v 0.078750 0.015000 0.078750
v 0.078750 0.015000 -0.078750
v -0.165375 0.015000 -0.165375
v -0.165375 0.015000 0.165375
v 0.165375 0.015000 0.165375
v 0.165375 0.015000 -0.165375
v -0.165375 -0.000000 -0.165375
v -0.165375 0.000000 0.165375
v 0.165375 0.000000 0.165375
v 0.165375 -0.000000 -0.165375
vn -0.9961 -0.0000 -0.0885
vn -0.0000 -0.0000 1.0000
vn -0.0000 -1.0000 -0.0000
vn -0.9285 -0.0000 -0.3714
vn -0.0000 0.9285 -0.3714
vn -0.0000 1.0000 -0.0000
vn -0.0000 -0.9285 -0.3714
vn 0.9285 -0.0000 -0.3714
vn -0.0000 -0.9961 -0.0885
vn 0.9961 -0.0000 -0.0885
vn -0.0000 -0.0000 -1.0000
vn -1.0000 -0.0000 -0.0000
vn 1.0000 -0.0000 -0.0000
vn -0.0000 0.9961 -0.0885
vn 0.9446 -0.3283 -0.0000
vn -0.9446 -0.3283 -0.0000
vn -0.0000 -0.3283 -0.9446
vn -0.0000 -0.3283 0.9446
vt 0.243783 0.416191
vt 0.443133 0.148671
vt 0.243783 0.134591
vt 0.500000 1.000000
vt 0.000000 1.000000
vt 0.453018 0.949124
vt 0.449112 0.648404
vt 0.047033 0.648404
vt -0.000000 0.566406
vt 0.008901 0.422768
vt 0.118901 0.233482
vt 0.008901 0.233482
vt 0.124533 0.451391
vt 0.124533 0.099391
vt 0.124761 0.422768
vt 0.242395 0.264911
vt 0.242395 0.391339
vt 0.118901 0.422768
vt 0.124761 0.233482
vt 0.199448 0.263839
vt 0.416591 0.392411
vt 0.428020 0.263839
vt 0.443133 0.402111
vt 0.960625 0.582344
vt 0.558906 0.960625
vt 0.960625 0.960625
vt 0.047033 0.953031
vt 0.449112 0.953031
vt 0.001333 0.174989
vt 0.124533 0.457250
vt 0.124533 0.105250
vt 0.445206 0.945218
vt 0.050939 0.652310
vt 0.445206 0.652310
vt 0.041174 0.652310
vt 0.041174 0.949124
vt 0.454971 0.949124
vt 0.454971 0.652310
vt 0.210877 0.392411
vt 0.001333 0.457250
vt 0.444191 0.100000
vt 0.508934 0.245625
vt 0.444191 0.290625
vt 0.508934 0.145000
vt 0.335000 0.372031
vt 0.305000 0.262031
vt 0.335000 0.292031
vt 0.415000 0.292031
vt 0.445000 0.402031
vt 0.415000 0.372031
vt 0.497279 0.087500
vt 0.502721 0.287500
vt 0.497279 0.287500
vt 0.502721 0.087500
vt 0.305000 0.402031
vt 0.445000 0.262031
vt 0.415184 0.245625
vt 0.415184 0.145000
vt 0.453018 0.652310
vt 0.500000 0.652310
vt -0.000000 0.652310
vt 0.042883 0.949124
vt 0.042883 0.652310
vt -0.000000 0.648404
vt 0.500000 0.566406
vt 0.500000 0.648404
vt 0.558906 0.582344
vt 0.001333 0.105250
vt 0.050939 0.945218
s 1
usemtl M_RetroMonitor
f 10/1/1 13/2/1 9/3/1
f 8/4/2 6/5/2 17/6/2
f 21/7/2 22/8/2 5/9/2
f 5/10/3 3/11/3 7/12/3
f 2/13/4 9/3/4 1/14/4
f 2/15/5 12/16/5 10/17/5
f 2/18/6 8/12/6 4/11/6
f 1/15/7 11/16/7 3/19/7
f 3/14/8 12/1/8 4/13/8
f 9/20/9 15/21/9 11/22/9
f 11/3/10 16/23/10 12/1/10
f 15/24/11 14/25/11 16/26/11
f 18/27/3 23/28/3 17/28/3
f 20/29/12 2/30/12 1/31/12
f 23/32/2 26/33/2 25/34/2
f 21/7/6 26/8/6 22/8/6
f 22/35/13 24/36/13 18/36/13
f 17/37/12 25/38/12 21/38/12
f 12/22/14 14/39/14 10/20/14
f 4/30/13 8/40/13 19/29/13
f 30/41/15 34/42/15 29/43/15
f 27/43/16 32/44/16 28/41/16
f 29/41/17 31/42/17 27/43/17
f 28/43/18 33/44/18 30/41/18
f 31/45/6 36/46/6 32/47/6
f 33/48/6 38/49/6 34/50/6
f 37/51/13 42/52/13 38/53/13
f 35/53/12 40/54/12 36/51/12
f 38/51/11 39/52/11 35/53/11
f 36/53/2 41/54/2 37/51/2
f 34/50/6 35/55/6 31/45/6
f 32/47/6 37/56/6 33/48/6
f 40/57/3 42/44/3 41/58/3
f 10/1/1 14/23/1 13/2/1
f 21/59/2 19/60/2 17/6/2
f 19/60/2 8/4/2 17/6/2
f 6/5/2 20/61/2 18/62/2
f 20/61/2 22/63/2 18/62/2
f 6/5/2 18/62/2 17/6/2
f 22/8/2 20/64/2 5/9/2
f 5/9/2 7/65/2 21/7/2
f 7/65/2 19/66/2 21/7/2
f 5/10/3 1/18/3 3/11/3
f 2/13/4 10/1/4 9/3/4
f 2/15/5 4/19/5 12/16/5
f 2/18/6 6/10/6 8/12/6
f 1/15/7 9/17/7 11/16/7
f 3/14/8 11/3/8 12/1/8
f 9/20/9 13/39/9 15/21/9
f 11/3/10 15/2/10 16/23/10
f 15/24/11 13/67/11 14/25/11
f 18/27/3 24/27/3 23/28/3
f 1/31/12 5/68/12 20/29/12
f 20/29/12 6/40/12 2/30/12
f 23/32/2 24/69/2 26/33/2
f 21/7/6 25/7/6 26/8/6
f 22/35/13 26/35/13 24/36/13
f 17/37/12 23/37/12 25/38/12
f 12/22/14 16/21/14 14/39/14
f 7/68/13 3/31/13 19/29/13
f 3/31/13 4/30/13 19/29/13
f 30/41/15 33/44/15 34/42/15
f 27/43/16 31/42/16 32/44/16
f 29/41/17 34/44/17 31/42/17
f 28/43/18 32/42/18 33/44/18
f 31/45/6 35/55/6 36/46/6
f 33/48/6 37/56/6 38/49/6
f 37/51/13 41/54/13 42/52/13
f 35/53/12 39/52/12 40/54/12
f 38/51/11 42/54/11 39/52/11
f 36/53/2 40/52/2 41/54/2
f 34/50/6 38/49/6 35/55/6
f 32/47/6 36/46/6 37/56/6
f 40/57/3 39/42/3 42/44/3
