# Blender 4.5.2 LTS
# www.blender.org
mtllib Guy.mtl
o Torso
v 0.347500 1.337500 -0.092782
v 0.297500 0.567500 -0.076173
v 0.347500 1.337500 0.092782
v 0.297500 0.567500 0.076174
v 0.095414 1.430000 -0.092782
v 0.095414 1.430000 0.092782
v 0.365130 1.150000 -0.092782
v 0.365130 1.150000 0.092782
v 0.000000 2.010000 -0.148694
v 0.000000 1.460000 -0.148694
v 0.000000 1.430000 -0.071249
v 0.000000 1.550000 -0.087969
v 0.071352 1.550000 -0.087969
v 0.540000 1.140000 -0.092782
v 0.540000 1.140000 0.092782
v 0.480000 1.300000 -0.092782
v 0.530000 1.230000 -0.092782
v 0.530000 1.230000 0.092782
v 0.480000 1.300000 0.092782
v 0.435641 0.001250 -0.092782
v 0.435641 0.001250 0.092782
v 0.564359 -0.001250 -0.092782
v 0.564359 -0.001250 0.092782
v 0.400000 0.600000 -0.092782
v 0.400000 0.600000 0.092782
v 0.570000 0.600000 -0.092782
v 0.570000 0.600000 0.092782
v 0.000000 0.500000 -0.076173
v 0.000000 0.500000 0.076174
v 0.000000 1.430000 0.092782
v 0.000000 1.430000 -0.092782
v 0.095414 1.430000 -0.071249
v 0.175785 1.858274 -0.148694
v 0.144229 1.939185 -0.148694
v 0.108220 1.976209 -0.148694
v 0.028216 2.010000 -0.148694
v 0.030722 1.460000 -0.148694
v 0.120000 1.530000 -0.148694
v 0.170000 1.650000 -0.148694
v 0.398501 0.122349 0.120319
v 0.398501 0.122349 -0.120319
v 0.000000 -0.190000 0.097624
v 0.000000 -0.190000 -0.097624
v 0.400000 -0.800000 0.122337
v 0.400000 -0.800000 -0.122337
v 0.130000 -0.840000 0.122337
v 0.130000 -0.840000 -0.122337
v 0.340000 -1.740000 0.100706
v 0.340000 -1.740000 -0.100706
v 0.220000 -1.740000 0.100706
v 0.220000 -1.740000 -0.100706
v 0.570000 -0.120000 -0.092782
v 0.570000 -0.120000 0.092782
v 0.530000 -0.250000 -0.092782
v 0.430000 -1.980000 -0.100706
v 0.430000 -1.980000 0.100706
v 0.530000 -0.250000 0.092782
v 0.450000 -0.130000 0.092782
v 0.450000 -0.130000 -0.092782
v 0.440523 -0.300268 -0.092782
v 0.423665 -0.288440 -0.092782
v 0.423665 -0.288440 0.092782
v 0.440523 -0.300268 0.092782
v 0.190000 -1.980000 0.100706
v 0.190000 -1.980000 -0.100706
v 0.170000 1.650000 0.181119
v 0.170000 1.650000 -0.148694
v 0.120000 1.530000 0.181119
v 0.120000 1.530000 -0.148694
v 0.030722 1.460000 -0.148694
v 0.030722 1.460000 0.181119
v 0.175785 1.858274 0.181119
v 0.144229 1.939185 0.181119
v 0.108220 1.976209 0.181119
v 0.028216 2.010000 0.181119
v 0.028216 2.010000 -0.148694
v 0.108220 1.976209 -0.148694
v 0.144229 1.939185 -0.148694
v 0.175785 1.858274 -0.148694
v 0.095414 1.430000 0.071249
v 0.071352 1.550000 0.120395
v 0.095414 1.430000 -0.071249
v 0.071352 1.550000 -0.087969
v 0.000000 1.550000 0.120395
v 0.000000 1.550000 -0.087969
v 0.000000 1.430000 0.071249
v 0.000000 1.430000 -0.071249
v 0.000000 1.460000 -0.148694
v 0.000000 1.460000 0.181119
v 0.000000 2.010000 0.181119
v 0.000000 2.010000 -0.148694
v -0.347500 1.337500 -0.092782
v -0.297500 0.567500 -0.076173
v -0.347500 1.337500 0.092782
v -0.297500 0.567500 0.076174
v -0.095414 1.430000 -0.092782
v -0.095414 1.430000 0.092782
v -0.365130 1.150000 -0.092782
v -0.365130 1.150000 0.092782
v -0.071352 1.550000 -0.087969
v -0.540000 1.140000 -0.092782
v -0.540000 1.140000 0.092782
v -0.480000 1.300000 -0.092782
v -0.530000 1.230000 -0.092782
v -0.530000 1.230000 0.092782
v -0.480000 1.300000 0.092782
v -0.435641 0.001250 -0.092782
v -0.435641 0.001250 0.092782
v -0.564359 -0.001250 -0.092782
v -0.564359 -0.001250 0.092782
v -0.400000 0.600000 -0.092782
v -0.400000 0.600000 0.092782
v -0.570000 0.600000 -0.092782
v -0.570000 0.600000 0.092782
v -0.095414 1.430000 -0.071249
v -0.175785 1.858274 -0.148694
v -0.144229 1.939185 -0.148694
v -0.108220 1.976209 -0.148694
v -0.028216 2.010000 -0.148694
v -0.030722 1.460000 -0.148694
v -0.120000 1.530000 -0.148694
v -0.170000 1.650000 -0.148694
v -0.398501 0.122349 0.120319
v -0.398501 0.122349 -0.120319
v -0.400000 -0.800000 0.122337
v -0.400000 -0.800000 -0.122337
v -0.130000 -0.840000 0.122337
v -0.130000 -0.840000 -0.122337
v -0.340000 -1.740000 0.100706
v -0.340000 -1.740000 -0.100706
v -0.220000 -1.740000 0.100706
v -0.220000 -1.740000 -0.100706
v -0.570000 -0.120000 -0.092782
v -0.570000 -0.120000 0.092782
v -0.530000 -0.250000 -0.092782
v -0.430000 -1.980000 -0.100706
v -0.430000 -1.980000 0.100706
v -0.530000 -0.250000 0.092782
v -0.450000 -0.130000 0.092782
v -0.450000 -0.130000 -0.092782
v -0.440523 -0.300268 -0.092782
v -0.423665 -0.288440 -0.092782
v -0.423665 -0.288440 0.092782
v -0.440523 -0.300268 0.092782
v -0.190000 -1.980000 0.100706
v -0.190000 -1.980000 -0.100706
v -0.170000 1.650000 0.181119
v -0.170000 1.650000 -0.148694
v -0.120000 1.530000 0.181119
v -0.120000 1.530000 -0.148694
v -0.030722 1.460000 -0.148694
v -0.030722 1.460000 0.181119
v -0.175785 1.858274 0.181119
v -0.144229 1.939185 0.181119
v -0.108220 1.976209 0.181119
v -0.028216 2.010000 0.181119
v -0.028216 2.010000 -0.148694
v -0.108220 1.976209 -0.148694
v -0.144229 1.939185 -0.148694
v -0.175785 1.858274 -0.148694
v -0.095414 1.430000 0.071249
v -0.071352 1.550000 0.120395
v -0.095414 1.430000 -0.071249
v -0.071352 1.550000 -0.087969
vn 0.2155 0.6643 -0.7157
vn 0.6758 0.0584 -0.7348
vn 0.2155 0.6643 0.7157
vn 0.6758 0.0584 0.7348
vn 0.1299 0.7311 -0.6698
vn 0.1299 0.7311 0.6698
vn -0.0092 -0.0523 -0.9986
vn -0.0092 -0.0523 0.9986
vn -0.0000 -0.0000 -1.0000
vn -0.0000 -0.1380 -0.9904
vn 0.7108 0.0592 -0.7010
vn 0.7107 0.0592 0.7010
vn 0.4424 0.6286 -0.6396
vn 0.7061 0.2702 -0.6545
vn 0.7061 0.2702 0.6545
vn 0.4423 0.6287 0.6396
vn -0.7101 -0.0599 -0.7016
vn -0.7101 -0.0599 0.7016
vn 0.7004 0.0133 -0.7136
vn 0.7005 0.0133 0.7136
vn -0.6562 -0.3691 -0.6582
vn -0.6562 -0.3690 0.6582
vn 0.6760 -0.3227 -0.6625
vn 0.6760 -0.3227 0.6625
vn -0.2474 0.0259 -0.9686
vn -0.2474 0.0259 0.9686
vn -0.0000 0.7034 0.7108
vn -0.0000 0.7034 -0.7108
vn 0.6938 0.1054 0.7125
vn 0.6938 0.1054 -0.7125
vn -0.2524 -0.0884 0.9636
vn -0.2524 -0.0884 -0.9636
vn 0.7073 -0.0194 0.7067
vn 0.7073 -0.0194 -0.7067
vn -0.6821 -0.0968 0.7248
vn -0.6821 -0.0968 -0.7248
vn 0.6493 0.0871 0.7555
vn 0.6493 0.0871 -0.7556
vn -0.6829 -0.0009 0.7305
vn -0.6829 -0.0009 -0.7305
vn 0.7362 -0.0929 -0.6703
vn 0.7362 -0.0929 0.6703
vn 0.6030 -0.4864 -0.6323
vn 0.6805 -0.4716 -0.5608
vn 0.6805 -0.4716 0.5608
vn 0.6030 -0.4863 0.6323
vn -0.6733 0.0188 0.7391
vn -0.6733 0.0188 -0.7391
vn -0.0398 -0.7955 -0.6046
vn -0.7346 -0.3081 -0.6046
vn -0.7346 -0.3081 0.6046
vn -0.0398 -0.7955 0.6046
vn -0.6154 -0.5433 0.5711
vn -0.6154 -0.5433 -0.5711
vn 0.7274 -0.1560 0.6682
vn 0.9778 -0.2097 -0.0000
vn 0.6018 -0.4578 0.6544
vn 0.7959 -0.6054 -0.0000
vn 0.3264 -0.9452 -0.0000
vn 0.2506 -0.7259 0.6405
vn 0.7358 0.1279 0.6650
vn 0.6281 0.4041 0.6650
vn 0.4213 0.6166 0.6650
vn 0.1482 0.7319 0.6651
vn 0.1985 0.9801 -0.0000
vn 0.5642 0.8256 -0.0000
vn 0.8410 0.5411 -0.0000
vn 0.9852 0.1712 -0.0000
vn 0.8290 -0.0614 0.5559
vn 0.5067 0.4954 0.7056
vn 0.9805 0.1966 -0.0000
vn 0.6048 0.7964 -0.0000
vn -0.3199 0.5279 0.7868
vn -0.4149 0.9099 -0.0000
vn -0.5292 -0.3216 0.7852
vn -1.0000 -0.0000 -0.0000
vn -0.0000 -1.0000 -0.0000
vn -0.0000 -0.7071 0.7071
vn -0.0000 0.7072 0.7071
vn -0.0000 1.0000 -0.0000
vn -0.2155 0.6643 -0.7157
vn -0.6758 0.0584 -0.7348
vn -0.2155 0.6643 0.7157
vn -0.6758 0.0584 0.7348
vn -0.1299 0.7311 -0.6698
vn -0.1299 0.7311 0.6698
vn 0.0092 -0.0523 -0.9986
vn 0.0092 -0.0523 0.9986
vn -0.7108 0.0592 -0.7010
vn -0.7107 0.0592 0.7010
vn -0.4424 0.6286 -0.6396
vn -0.7061 0.2702 -0.6545
vn -0.7061 0.2702 0.6545
vn -0.4423 0.6287 0.6396
vn 0.7101 -0.0599 -0.7016
vn 0.7101 -0.0599 0.7016
vn -0.7004 0.0133 -0.7136
vn -0.7005 0.0133 0.7136
vn 0.6562 -0.3691 -0.6582
vn 0.6562 -0.3690 0.6582
vn -0.6760 -0.3227 -0.6625
vn -0.6760 -0.3227 0.6625
vn -0.6938 0.1054 0.7125
vn -0.6938 0.1054 -0.7125
vn -0.7073 -0.0194 0.7067
vn -0.7073 -0.0194 -0.7067
vn 0.6821 -0.0968 0.7248
vn 0.6821 -0.0968 -0.7248
vn -0.6493 0.0871 0.7555
vn -0.6493 0.0871 -0.7556
vn 0.6829 -0.0009 0.7305
vn 0.6829 -0.0009 -0.7305
vn -0.7362 -0.0929 -0.6703
vn -0.7362 -0.0929 0.6703
vn -0.6030 -0.4864 -0.6323
vn -0.6805 -0.4716 -0.5608
vn -0.6805 -0.4716 0.5608
vn -0.6030 -0.4863 0.6323
vn 0.6733 0.0188 0.7391
vn 0.6733 0.0188 -0.7391
vn 0.0398 -0.7955 -0.6046
vn 0.7346 -0.3081 -0.6046
vn 0.7346 -0.3081 0.6046
vn 0.0398 -0.7955 0.6046
vn 0.6154 -0.5433 0.5711
vn 0.6154 -0.5433 -0.5711
vn -0.7274 -0.1560 0.6682
vn -0.9778 -0.2097 -0.0000
vn -0.6018 -0.4578 0.6544
vn -0.7959 -0.6054 -0.0000
vn -0.3264 -0.9452 -0.0000
vn -0.2506 -0.7259 0.6405
vn -0.7358 0.1279 0.6650
vn -0.6281 0.4041 0.6650
vn -0.4213 0.6166 0.6650
vn -0.1482 0.7319 0.6651
vn -0.1985 0.9801 -0.0000
vn -0.5642 0.8256 -0.0000
vn -0.8410 0.5411 -0.0000
vn -0.9852 0.1712 -0.0000
vn -0.8290 -0.0614 0.5559
vn -0.5067 0.4954 0.7056
vn -0.9805 0.1966 -0.0000
vn -0.6048 0.7964 -0.0000
vt 0.500000 0.500000
vt 0.687500 0.500000
vt 0.625000 0.750000
vt 0.625000 0.500000
vt 0.375000 0.750000
vt 0.375000 0.500000
vt 0.625000 0.750000
vt 0.575248 0.500000
vt 0.500000 0.750000
vt 0.575248 0.750000
vt 0.000000 0.000000
vt 0.687500 0.750000
vt 0.519635 0.500000
vt 0.661052 0.426202
vt 0.500000 0.750000
vt 0.312500 0.750000
vt 0.312500 0.500000
vt 0.277726 0.750000
vt 0.277726 0.500000
vt 0.661052 0.819354
vt 0.622451 0.471722
vt 0.585805 0.763494
vt 0.519635 0.750000
vt 0.622451 0.778278
vt 0.585805 0.486506
s 1
usemtl Material
f 24/1/21 26/1/23 20/1/17
f 5/2/5 3/3/3 1/4/1
f 7/1/7 4/5/4 2/6/2
f 19/7/16 17/8/14 16/4/13
f 1/4/1 19/7/16 16/4/13
f 17/8/14 15/9/12 14/1/11
f 17/8/14 7/1/7 16/4/13
f 8/9/8 18/10/15 19/7/16
f 21/9/18 23/9/20 27/9/24
f 24/1/21 21/9/18 25/9/22
f 27/9/24 22/1/19 26/1/23
f 7/1/7 25/9/22 8/9/8
f 15/9/12 26/1/23 14/1/11
f 24/1/21 27/9/24 25/9/22
f 29/5/26 40/5/29 4/5/4
f 30/11/27 8/9/8 6/12/6
f 31/11/28 5/2/5 7/1/7
f 5/2/5 30/11/27 6/12/6
f 33/13/9 39/6/9 9/14/9
f 11/4/10 13/4/10 32/6/10
f 43/6/32 45/6/34 47/6/36
f 4/5/4 41/6/30 2/6/2
f 28/6/25 41/6/30 43/6/32
f 28/11/25 42/11/31 29/11/26
f 44/5/33 49/6/38 45/6/34
f 43/11/32 46/11/35 42/11/31
f 42/5/31 44/5/33 40/5/29
f 40/5/29 45/6/34 41/6/30
f 49/6/38 65/6/54 51/6/40
f 47/6/36 49/6/38 51/6/40
f 47/11/36 50/11/39 46/11/35
f 46/5/35 48/5/37 44/5/33
f 23/9/20 52/1/41 22/1/19
f 56/5/45 65/6/54 55/6/44
f 48/5/37 64/5/53 56/5/45
f 54/1/43 53/9/42 57/15/46
f 48/5/37 55/6/44 49/6/38
f 51/11/40 64/11/53 50/11/39
f 20/1/17 58/9/47 21/9/18
f 61/1/50 63/9/52 62/15/51
f 61/1/50 59/1/48 54/1/43
f 57/15/46 60/1/49 54/1/43
f 59/1/48 62/15/51 58/9/47
f 57/15/46 53/9/42 58/9/47
f 67/6/56 68/16/57 69/17/58
f 69/17/58 71/18/60 70/19/59
f 75/20/64 77/21/66 76/14/65
f 79/13/68 73/22/62 72/23/61
f 74/24/63 78/25/67 77/21/66
f 79/13/68 66/5/55 67/6/56
f 83/4/72 80/5/69 82/6/71
f 83/4/72 84/3/73 81/3/70
f 85/4/74 86/3/75 84/3/73
f 81/3/70 86/3/75 80/5/69
f 71/18/60 88/19/77 70/19/59
f 76/14/65 90/20/79 75/20/64
f 90/20/79 89/18/78 66/5/55
f 24/1/21 7/1/7 14/1/11
f 14/1/11 26/1/23 24/1/21
f 26/1/23 22/1/19 20/1/17
f 5/2/5 6/12/6 3/3/3
f 7/1/7 8/9/8 4/5/4
f 19/7/16 18/10/15 17/8/14
f 1/4/1 3/3/3 19/7/16
f 17/8/14 18/10/15 15/9/12
f 14/1/11 7/1/7 17/8/14
f 7/1/7 1/4/1 16/4/13
f 19/7/16 3/3/3 8/9/8
f 8/9/8 15/9/12 18/10/15
f 27/9/24 15/9/12 25/9/22
f 15/9/12 8/9/8 25/9/22
f 25/9/22 21/9/18 27/9/24
f 24/1/21 20/1/17 21/9/18
f 27/9/24 23/9/20 22/1/19
f 7/1/7 24/1/21 25/9/22
f 15/9/12 27/9/24 26/1/23
f 24/1/21 26/1/23 27/9/24
f 29/5/26 42/5/31 40/5/29
f 30/11/27 29/5/26 8/9/8
f 29/5/26 4/5/4 8/9/8
f 8/9/8 3/3/3 6/12/6
f 1/4/1 7/1/7 5/2/5
f 7/1/7 2/6/2 28/6/25
f 31/11/28 7/1/7 28/6/25
f 5/2/5 31/11/28 30/11/27
f 39/6/9 38/17/9 10/19/9
f 38/17/9 37/19/9 10/19/9
f 10/19/9 9/14/9 39/6/9
f 9/14/9 36/14/9 35/21/9
f 35/21/9 34/25/9 9/14/9
f 34/25/9 33/13/9 9/14/9
f 11/4/10 12/4/10 13/4/10
f 43/6/32 41/6/30 45/6/34
f 4/5/4 40/5/29 41/6/30
f 28/6/25 2/6/2 41/6/30
f 28/11/25 43/11/32 42/11/31
f 44/5/33 48/5/37 49/6/38
f 43/11/32 47/11/36 46/11/35
f 42/5/31 46/5/35 44/5/33
f 40/5/29 44/5/33 45/6/34
f 49/6/38 55/6/44 65/6/54
f 47/6/36 45/6/34 49/6/38
f 47/11/36 51/11/40 50/11/39
f 46/5/35 50/5/39 48/5/37
f 23/9/20 53/9/42 52/1/41
f 56/5/45 64/5/53 65/6/54
f 48/5/37 50/5/39 64/5/53
f 54/1/43 52/1/41 53/9/42
f 48/5/37 56/5/45 55/6/44
f 51/11/40 65/11/54 64/11/53
f 20/1/17 59/1/48 58/9/47
f 61/1/50 60/1/49 63/9/52
f 59/1/48 20/1/17 22/1/19
f 22/1/19 52/1/41 59/1/48
f 52/1/41 54/1/43 59/1/48
f 54/1/43 60/1/49 61/1/50
f 57/15/46 63/9/52 60/1/49
f 59/1/48 61/1/50 62/15/51
f 53/9/42 23/9/20 58/9/47
f 23/9/20 21/9/18 58/9/47
f 58/9/47 62/15/51 57/15/46
f 62/15/51 63/9/52 57/15/46
f 67/6/56 66/5/55 68/16/57
f 69/17/58 68/16/57 71/18/60
f 75/20/64 74/24/63 77/21/66
f 79/13/68 78/25/67 73/22/62
f 74/24/63 73/22/62 78/25/67
f 79/13/68 72/23/61 66/5/55
f 83/4/72 81/3/70 80/5/69
f 83/4/72 85/4/74 84/3/73
f 85/4/74 87/4/76 86/3/75
f 81/3/70 84/3/73 86/3/75
f 71/18/60 89/18/78 88/19/77
f 76/14/65 91/14/80 90/20/79
f 68/16/57 66/5/55 89/18/78
f 66/5/55 72/23/61 90/20/79
f 68/16/57 89/18/78 71/18/60
f 72/23/61 73/22/62 90/20/79
f 73/22/62 74/24/63 90/20/79
f 74/24/63 75/20/64 90/20/79
f 111/1/99 107/1/95 113/1/101
f 96/2/85 92/4/81 94/3/83
f 98/1/87 93/6/82 95/5/84
f 106/7/94 103/4/91 104/8/92
f 92/4/81 103/4/91 106/7/94
f 104/8/92 101/1/89 102/9/90
f 104/8/92 103/4/91 98/1/87
f 99/9/88 106/7/94 105/10/93
f 108/9/96 114/9/102 110/9/98
f 111/1/99 112/9/100 108/9/96
f 114/9/102 113/1/101 109/1/97
f 98/1/87 99/9/88 112/9/100
f 102/9/90 101/1/89 113/1/101
f 111/1/99 112/9/100 114/9/102
f 29/5/26 95/5/84 123/5/103
f 30/11/27 97/12/86 99/9/88
f 31/11/28 98/1/87 96/2/85
f 96/2/85 97/12/86 30/11/27
f 116/13/9 9/14/9 122/6/9
f 11/4/10 115/6/10 100/4/10
f 43/6/32 128/6/108 126/6/106
f 95/5/84 93/6/82 124/6/104
f 28/6/25 43/6/32 124/6/104
f 125/5/105 126/6/106 130/6/110
f 43/11/32 42/11/31 127/11/107
f 42/5/31 123/5/103 125/5/105
f 123/5/103 124/6/104 126/6/106
f 130/6/110 132/6/112 146/6/126
f 128/6/108 132/6/112 130/6/110
f 128/11/108 127/11/107 131/11/111
f 127/5/107 125/5/105 129/5/109
f 110/9/98 109/1/97 133/1/113
f 137/5/117 136/6/116 146/6/126
f 129/5/109 137/5/117 145/5/125
f 135/1/115 138/15/118 134/9/114
f 129/5/109 130/6/110 136/6/116
f 132/11/112 131/11/111 145/11/125
f 107/1/95 108/9/96 139/9/119
f 142/1/122 143/15/123 144/9/124
f 142/1/122 135/1/115 140/1/120
f 138/15/118 135/1/115 141/1/121
f 140/1/120 139/9/119 143/15/123
f 138/15/118 139/9/119 134/9/114
f 148/6/128 150/17/130 149/16/129
f 150/17/130 151/19/131 152/18/132
f 156/20/136 157/14/137 158/21/138
f 160/13/140 153/23/133 154/22/134
f 155/24/135 158/21/138 159/25/139
f 160/13/140 148/6/128 147/5/127
f 164/4/144 163/6/143 161/5/141
f 164/4/144 162/3/142 84/3/73
f 162/3/142 161/5/141 86/3/75
f 152/18/132 151/19/131 88/19/77
f 157/14/137 156/20/136 90/20/79
f 90/20/79 147/5/127 89/18/78
f 111/1/99 101/1/89 98/1/87
f 101/1/89 111/1/99 113/1/101
f 113/1/101 107/1/95 109/1/97
f 96/2/85 94/3/83 97/12/86
f 98/1/87 95/5/84 99/9/88
f 106/7/94 104/8/92 105/10/93
f 92/4/81 106/7/94 94/3/83
f 104/8/92 102/9/90 105/10/93
f 101/1/89 104/8/92 98/1/87
f 98/1/87 103/4/91 92/4/81
f 106/7/94 99/9/88 94/3/83
f 99/9/88 105/10/93 102/9/90
f 114/9/102 112/9/100 102/9/90
f 102/9/90 112/9/100 99/9/88
f 112/9/100 114/9/102 108/9/96
f 111/1/99 108/9/96 107/1/95
f 114/9/102 109/1/97 110/9/98
f 98/1/87 112/9/100 111/1/99
f 102/9/90 113/1/101 114/9/102
f 111/1/99 114/9/102 113/1/101
f 29/5/26 123/5/103 42/5/31
f 30/11/27 99/9/88 29/5/26
f 29/5/26 99/9/88 95/5/84
f 99/9/88 97/12/86 94/3/83
f 92/4/81 96/2/85 98/1/87
f 98/1/87 28/6/25 93/6/82
f 31/11/28 28/6/25 98/1/87
f 96/2/85 30/11/27 31/11/28
f 122/6/9 10/19/9 121/17/9
f 121/17/9 10/19/9 120/19/9
f 10/19/9 122/6/9 9/14/9
f 9/14/9 118/21/9 119/14/9
f 118/21/9 9/14/9 117/25/9
f 117/25/9 9/14/9 116/13/9
f 11/4/10 100/4/10 12/4/10
f 43/6/32 126/6/106 124/6/104
f 95/5/84 124/6/104 123/5/103
f 28/6/25 124/6/104 93/6/82
f 125/5/105 130/6/110 129/5/109
f 43/11/32 127/11/107 128/11/108
f 42/5/31 125/5/105 127/5/107
f 123/5/103 126/6/106 125/5/105
f 130/6/110 146/6/126 136/6/116
f 128/6/108 130/6/110 126/6/106
f 128/11/108 131/11/111 132/11/112
f 127/5/107 129/5/109 131/5/111
f 110/9/98 133/1/113 134/9/114
f 137/5/117 146/6/126 145/5/125
f 129/5/109 145/5/125 131/5/111
f 135/1/115 134/9/114 133/1/113
f 129/5/109 136/6/116 137/5/117
f 132/11/112 145/11/125 146/11/126
f 107/1/95 139/9/119 140/1/120
f 142/1/122 144/9/124 141/1/121
f 140/1/120 109/1/97 107/1/95
f 109/1/97 140/1/120 133/1/113
f 133/1/113 140/1/120 135/1/115
f 135/1/115 142/1/122 141/1/121
f 138/15/118 141/1/121 144/9/124
f 140/1/120 143/15/123 142/1/122
f 134/9/114 139/9/119 110/9/98
f 110/9/98 139/9/119 108/9/96
f 139/9/119 138/15/118 143/15/123
f 143/15/123 138/15/118 144/9/124
f 148/6/128 149/16/129 147/5/127
f 150/17/130 152/18/132 149/16/129
f 156/20/136 158/21/138 155/24/135
f 160/13/140 154/22/134 159/25/139
f 155/24/135 159/25/139 154/22/134
f 160/13/140 147/5/127 153/23/133
f 164/4/144 161/5/141 162/3/142
f 164/4/144 84/3/73 85/4/74
f 162/3/142 86/3/75 84/3/73
f 152/18/132 88/19/77 89/18/78
f 157/14/137 90/20/79 91/14/80
f 149/16/129 89/18/78 147/5/127
f 147/5/127 90/20/79 153/23/133
f 149/16/129 152/18/132 89/18/78
f 153/23/133 90/20/79 154/22/134
f 154/22/134 90/20/79 155/24/135
f 155/24/135 90/20/79 156/20/136
