# Blender 4.5.3 LTS
# www.blender.org
mtllib spaceA.mtl
o Icosphere
v 0.913984 -0.266700 0.470275
v 0.913984 -0.266700 -0.470275
v -0.164825 -0.266700 1.014573
v 0.729701 -0.266701 0.723921
v -1.015851 -0.266698 0.156757
v -0.463000 -0.266701 0.917690
v -0.463000 -0.266701 -0.917690
v -1.015851 -0.266698 -0.156758
v 0.729701 -0.266701 -0.723921
v -0.164825 -0.266700 -1.014573
v 0.915159 0.293508 -0.451654
v 0.712351 0.293509 -0.730795
v -0.146754 0.293509 -1.009935
v -0.474902 0.293509 -0.903313
v -1.005856 0.293508 -0.172515
v -1.005855 0.293508 0.172516
v -0.474903 0.293509 0.903313
v -0.146755 0.293509 1.009935
v 0.712351 0.293508 0.730796
v 0.915159 0.293506 0.451655
v 0.474903 -0.293510 -0.903313
v 0.146755 -0.293509 -1.009935
v -0.712350 -0.293509 -0.730797
v -0.915158 -0.293508 -0.451656
v -0.915158 -0.293508 0.451656
v -0.712350 -0.293509 0.730797
v 0.146755 -0.293509 1.009935
v 0.474903 -0.293510 0.903312
v 1.005856 -0.293508 0.172515
v 1.005856 -0.293508 -0.172515
v 1.105772 -0.146561 0.353048
v 1.190412 -0.056483 0.384380
v 1.189000 0.056482 0.388726
v 1.102108 0.146561 -0.364326
v 1.105772 -0.146561 -0.353049
v 1.189000 0.056483 -0.388726
v 1.190412 -0.056482 -0.384380
v 0.005929 -0.146561 1.160750
v 0.002285 -0.056482 1.250929
v -0.002285 0.056482 1.250929
v 0.687068 0.146561 0.935581
v 0.677476 -0.146561 0.942551
v 0.737127 0.056482 1.010679
v 0.733430 -0.056482 1.013366
v -1.102108 -0.146561 0.364326
v -1.189000 -0.056482 0.388726
v -1.190412 0.056483 0.384381
v -0.677476 0.146561 0.942550
v -0.687068 -0.146561 0.935581
v -0.733430 0.056483 1.013366
v -0.737127 -0.056482 1.010680
v -0.687068 -0.146561 -0.935581
v -0.737127 -0.056482 -1.010680
v -0.733430 0.056482 -1.013366
v -1.105772 0.146561 -0.353049
v -1.102108 -0.146561 -0.364326
v -1.190412 0.056483 -0.384381
v -1.189000 -0.056482 -0.388727
v 0.677476 -0.146561 -0.942550
v 0.733430 -0.056482 -1.013366
v 0.737127 0.056482 -1.010679
v -0.005928 0.146561 -1.160750
v 0.005928 -0.146561 -1.160750
v -0.002285 0.056483 -1.250929
v 0.002285 -0.056482 -1.250929
v 0.937746 -0.145667 -0.681308
v 0.939043 0.146465 -0.682250
v 1.011326 -0.056025 -0.734766
v 1.011826 0.056558 -0.735129
v -0.358186 -0.145667 -1.102384
v -0.358681 0.146465 -1.103909
v -0.386290 -0.056026 -1.188882
v -0.386481 0.056558 -1.189470
v -1.159115 -0.145666 0.000000
v -1.160718 0.146466 0.000000
v -1.250064 -0.056025 0.000000
v -1.250682 0.056559 0.000000
v -0.358186 -0.145668 1.102384
v -0.358682 0.146464 1.103909
v -0.386291 -0.056026 1.188881
v -0.386482 0.056557 1.189469
v 0.937745 -0.145669 0.681308
v 0.939043 0.146463 0.682251
v 1.011325 -0.056028 0.734767
v 1.011825 0.056556 0.735130
v 0.358682 -0.146465 -1.103909
v 0.386291 0.056025 -1.188882
v 0.386482 -0.056558 -1.189470
v -0.939042 -0.146465 -0.682251
v -1.011325 0.056025 -0.734767
v -1.011825 -0.056558 -0.735130
v -0.939042 -0.146465 0.682251
v -1.011325 0.056025 0.734767
v -1.011825 -0.056558 0.735130
v 0.358682 -0.146465 1.103909
v 0.386291 0.056025 1.188882
v 0.386482 -0.056558 1.189469
v 1.160718 -0.146465 -0.000000
v 1.250064 0.056025 -0.000000
v 1.250682 -0.056558 -0.000000
v -0.000000 1.048887 -0.000000
v 0.271367 0.451164 0.858027
v 0.267477 0.458353 0.851138
v 0.263413 0.442969 0.856852
v -0.732176 0.451164 0.523230
v -0.726826 0.458352 0.517401
v -0.733516 0.442968 0.515302
v -0.723882 0.451164 -0.534646
v -0.716685 0.458352 -0.531359
v -0.716756 0.442968 -0.538370
v 0.284787 0.451164 -0.853667
v 0.283885 0.458353 -0.845807
v 0.290531 0.442969 -0.848041
v 0.899891 0.451160 0.007055
v 0.892137 0.458348 0.008626
v 0.896316 0.442964 0.014257
v 1.011483 0.270132 0.163957
v 1.019276 0.272048 0.164999
v 1.010386 0.286892 0.149702
v 1.021872 0.271884 -0.150170
v 1.014339 0.266108 -0.165884
v 1.007695 0.290799 -0.160381
v 0.156627 0.270134 1.012643
v 0.158045 0.272050 1.020376
v 0.169846 0.286894 1.007195
v 0.458595 0.271887 0.925452
v 0.471213 0.266111 0.913432
v 0.463926 0.290802 0.908814
v -0.905415 0.286893 0.472771
v -0.914682 0.270134 0.461883
v -0.921599 0.272049 0.465621
v -0.738444 0.271887 0.722130
v -0.723113 0.266111 0.730415
v -0.720973 0.290801 0.722058
v -0.721935 0.270135 -0.727178
v -0.727627 0.272050 -0.732601
v -0.729427 0.286894 -0.715000
v -0.909515 0.290800 -0.462550
v -0.914982 0.271886 -0.479144
v -0.918125 0.266110 -0.462003
v 0.468497 0.270135 -0.911311
v 0.471896 0.272050 -0.918401
v 0.454601 0.286895 -0.914673
v 0.172950 0.271886 -1.018263
v 0.155678 0.266110 -1.015955
v 0.158858 0.290801 -1.007936
v 0.833339 0.509453 0.230227
v 0.826767 0.511953 0.246683
v 0.835522 0.494887 0.241082
v 0.692473 0.533986 0.492167
v 0.682067 0.533986 0.506490
v 0.692180 0.518273 0.502989
v 0.490094 0.511956 0.710072
v 0.483046 0.505607 0.725441
v 0.491364 0.495543 0.717025
v 0.038550 0.509456 0.863695
v 0.020869 0.511957 0.862530
v 0.028902 0.494890 0.869125
v -0.254099 0.533987 0.810666
v -0.270936 0.533987 0.805195
v -0.264481 0.518275 0.813732
v -0.523874 0.511956 0.685529
v -0.540669 0.505606 0.683575
v -0.530095 0.495543 0.688885
v -0.809511 0.509455 0.303562
v -0.813866 0.511955 0.286386
v -0.817657 0.494889 0.296063
v -0.849511 0.533985 0.008852
v -0.849511 0.533985 -0.008852
v -0.855636 0.518273 -0.000075
v -0.813866 0.511955 -0.286386
v -0.817198 0.505605 -0.302963
v -0.818981 0.495542 -0.291265
v -0.538863 0.509456 -0.676079
v -0.523874 0.511956 -0.685529
v -0.534248 0.494890 -0.686144
v -0.270936 0.533987 -0.805195
v -0.254099 0.533987 -0.810666
v -0.264339 0.518275 -0.813778
v 0.020869 0.511957 -0.862530
v 0.035605 0.505607 -0.870821
v 0.023930 0.495543 -0.868902
v 0.476475 0.509456 -0.721407
v 0.490094 0.511956 -0.710072
v 0.487473 0.494890 -0.720128
v 0.682067 0.533986 -0.506490
v 0.692473 0.533986 -0.492167
v 0.692268 0.518273 -0.502868
v 0.826767 0.511953 -0.246683
v 0.839207 0.505603 -0.235230
v 0.833773 0.495540 -0.245742
v 0.080364 0.973842 0.247340
v 0.070854 0.974865 0.244688
v 0.073140 0.961552 0.253866
v 0.159698 0.864171 0.491508
v 0.153881 0.849271 0.501882
v 0.165213 0.854787 0.508483
v 0.230064 0.676791 0.708075
v 0.220819 0.666195 0.708381
v 0.223941 0.668732 0.715681
v 0.741951 0.666190 0.008887
v 0.749858 0.668728 0.008173
v 0.744517 0.676786 -0.000000
v 0.534654 0.854784 -0.000000
v 0.516805 0.864169 -0.000000
v 0.524874 0.849268 0.008738
v 0.264045 0.961551 0.008887
v 0.260071 0.973841 -0.000000
v 0.254609 0.974865 0.008225
v -0.218840 0.961552 0.148009
v -0.210401 0.973842 0.152863
v -0.210817 0.974865 0.142999
v -0.429767 0.849270 0.301440
v -0.432543 0.854787 0.314257
v -0.418103 0.864171 0.303766
v -0.602327 0.676790 0.437611
v -0.605474 0.666194 0.428913
v -0.611452 0.668732 0.434138
v -0.208392 0.961552 -0.162389
v -0.210401 0.973842 -0.152863
v -0.201147 0.974865 -0.156308
v -0.418103 0.864171 -0.303766
v -0.419495 0.849270 -0.315578
v -0.432543 0.854787 -0.314257
v -0.602327 0.676790 -0.437611
v -0.595027 0.666194 -0.443292
v -0.601843 0.668732 -0.447363
v 0.080364 0.973842 -0.247340
v 0.086499 0.974865 -0.239604
v 0.090044 0.961552 -0.248373
v 0.159698 0.864171 -0.491508
v 0.170501 0.849271 -0.496482
v 0.165213 0.854787 -0.508483
v 0.230064 0.676791 -0.708075
v 0.237723 0.666195 -0.702889
v 0.239488 0.668732 -0.710629
v 0.352907 0.905946 -0.262112
v 0.370725 0.899405 -0.262863
v 0.359970 0.891001 -0.270859
v 0.632948 0.732535 -0.270084
v 0.623370 0.729028 -0.271201
v 0.629269 0.739617 -0.262864
v 0.452455 0.732536 -0.518508
v 0.440543 0.730715 -0.531662
v 0.441283 0.728374 -0.521119
v -0.135440 0.899406 -0.433807
v -0.146368 0.891001 -0.426049
v -0.140231 0.905947 -0.416630
v -0.055547 0.739619 -0.679697
v -0.061277 0.732537 -0.685427
v -0.065299 0.729030 -0.676663
v -0.369507 0.730715 -0.583272
v -0.359252 0.728375 -0.580718
v -0.353316 0.732537 -0.590536
v -0.454430 0.899405 -0.005246
v -0.450429 0.891001 0.007545
v -0.439574 0.905946 0.004619
v -0.670817 0.732535 -0.153533
v -0.663725 0.729029 -0.146999
v -0.663597 0.739618 -0.157211
v -0.668911 0.730714 0.171176
v -0.663313 0.728374 0.162212
v -0.670817 0.732535 0.153533
v -0.131444 0.905947 0.419485
v -0.145417 0.899406 0.430565
v -0.132016 0.891001 0.430713
v -0.353316 0.732537 0.590536
v -0.344911 0.729030 0.585810
v -0.354584 0.739619 0.582533
v -0.043909 0.730715 0.689067
v -0.050704 0.728375 0.680973
v -0.061277 0.732537 0.685427
v 0.364558 0.899405 0.271351
v 0.368840 0.891001 0.258651
v 0.358338 0.905946 0.254638
v 0.444451 0.739619 0.517240
v 0.452455 0.732536 0.518508
v 0.450558 0.729029 0.509054
v 0.632948 0.732535 0.270084
v 0.641777 0.730713 0.254691
v 0.631979 0.728373 0.258652
v 1.098683 0.161450 0.356085
v 1.101894 0.135486 0.388679
v 1.103487 0.155463 0.355509
v 0.000851 0.161450 1.154946
v -0.029155 0.135487 1.168072
v 0.002883 0.155464 1.159337
v -1.101705 0.155464 0.360993
v -1.098157 0.161450 0.357703
v -1.119913 0.135487 0.333222
v -0.679549 0.161450 -0.933870
v -0.662989 0.135487 -0.962127
v -0.683775 0.155464 -0.936228
v 0.678172 0.161450 -0.934871
v 0.710163 0.135486 -0.927853
v 0.679109 0.155464 -0.939618
v 0.350061 0.161025 -1.098694
v 0.366146 0.154613 -1.098347
v 0.360481 0.138350 -1.109444
v -0.936747 0.161025 -0.672440
v -0.931447 0.154613 -0.687631
v -0.943751 0.138350 -0.685672
v -0.929002 0.161025 0.683099
v -0.941812 0.154613 0.673364
v -0.943751 0.138350 0.685672
v 0.362591 0.161026 1.094622
v 0.349375 0.154613 1.103796
v 0.360481 0.138350 1.109444
v 1.153094 0.161025 -0.006588
v 1.157735 0.154613 0.008817
v 1.166539 0.138350 0.000000
v 1.021871 0.300226 -0.150170
v 1.007695 0.312280 -0.160381
v 1.012766 0.320170 -0.148700
v 0.892137 0.488948 0.008626
v 0.899891 0.475908 0.007055
v 0.890875 0.499103 -0.014081
v 0.458595 0.300229 0.925452
v 0.463926 0.312283 0.908814
v 0.454384 0.320173 0.917247
v 0.267477 0.488952 0.851138
v 0.271367 0.475913 0.858027
v 0.288682 0.499108 0.842921
v -0.738444 0.300229 0.722130
v -0.720973 0.312283 0.722058
v -0.731942 0.320173 0.715589
v -0.726826 0.488952 0.517401
v -0.732176 0.475912 0.523230
v -0.712458 0.499107 0.535030
v -0.914982 0.300228 -0.479144
v -0.909515 0.312282 -0.462550
v -0.906752 0.320172 -0.474981
v -0.716686 0.488952 -0.531359
v -0.723882 0.475912 -0.534646
v -0.729011 0.499107 -0.512246
v 0.172950 0.300229 -1.018263
v 0.158858 0.312282 -1.007936
v 0.171535 0.320173 -1.009149
v 0.283885 0.488952 -0.845807
v 0.284787 0.475913 -0.853667
v 0.261899 0.499108 -0.851623
v 0.483046 0.527088 0.725441
v 0.490094 0.542939 0.710072
v 0.476178 0.557245 0.715373
v -0.540669 0.527088 0.683575
v -0.523874 0.542939 0.685529
v -0.533216 0.557245 0.673932
v -0.817198 0.527086 -0.302963
v -0.813866 0.542938 -0.286386
v -0.805724 0.557244 -0.298854
v 0.035605 0.527088 -0.870821
v 0.020869 0.542939 -0.862530
v 0.035244 0.557245 -0.858639
v 0.839207 0.527085 -0.235230
v 0.826767 0.542936 -0.246683
v 0.827509 0.557242 -0.231810
v 0.223941 0.699303 0.715681
v 0.243111 0.694490 0.720626
v 0.230064 0.702273 0.708075
v 0.254609 1.005319 0.008225
v 0.260071 1.003318 -0.000000
v 0.237339 1.017807 -0.008530
v -0.611452 0.699302 0.434138
v -0.610232 0.694489 0.453898
v -0.602327 0.702273 0.437611
v -0.601843 0.699302 -0.447363
v -0.620260 0.694489 -0.440096
v -0.602327 0.702273 -0.437611
v 0.239488 0.699303 -0.710629
v 0.226885 0.694490 -0.725898
v 0.230064 0.702273 -0.708075
v 1.019276 0.300696 0.164999
v 1.020222 0.311892 0.149791
v 1.010386 0.311641 0.149702
v 0.158045 0.300698 1.020376
v 0.172800 0.311894 1.016577
v 0.169846 0.311643 1.007195
v -0.921599 0.300697 0.465621
v -0.913426 0.311893 0.478480
v -0.905416 0.311642 0.472771
v -0.727628 0.300698 -0.732601
v -0.737332 0.311894 -0.720855
v -0.729427 0.311643 -0.715000
v 0.471896 0.300698 -0.918401
v 0.457726 0.311895 -0.924000
v 0.454601 0.311643 -0.914673
v 0.826767 0.542936 0.246683
v 0.833339 0.540052 0.230227
v 0.826065 0.557888 0.235788
v 0.682067 0.564968 0.506490
v 0.692472 0.564968 0.492167
v 0.683353 0.581200 0.496483
v 0.020869 0.542939 0.862530
v 0.038550 0.540056 0.863695
v 0.031014 0.557891 0.858495
v -0.270936 0.564969 0.805195
v -0.254099 0.564969 0.810666
v -0.261022 0.581202 0.803327
v -0.813866 0.542938 0.286386
v -0.809511 0.540054 0.303562
v -0.806894 0.557890 0.294787
v -0.849511 0.564968 -0.008852
v -0.849511 0.564968 0.008852
v -0.844670 0.581200 -0.000000
v -0.523874 0.542939 -0.685529
v -0.538863 0.540055 -0.676079
v -0.529710 0.557891 -0.676302
v -0.254099 0.564969 -0.810666
v -0.270936 0.564969 -0.805195
v -0.261022 0.581202 -0.803326
v 0.490094 0.542939 -0.710072
v 0.476475 0.540056 -0.721407
v 0.479515 0.557891 -0.712770
v 0.692473 0.564968 -0.492167
v 0.682067 0.564968 -0.506490
v 0.683353 0.581200 -0.496483
v 0.070854 1.005319 0.244688
v 0.080364 1.003319 0.247340
v 0.081452 1.017807 0.223084
v 0.165213 0.880269 0.508483
v 0.170501 0.898157 0.496482
v 0.159698 0.893649 0.491508
v 0.749858 0.699298 0.008173
v 0.760486 0.694485 -0.008530
v 0.744517 0.702268 -0.000000
v 0.516805 0.893646 -0.000000
v 0.534654 0.880267 -0.000000
v 0.524874 0.898154 -0.008738
v -0.210817 1.005319 0.142999
v -0.210401 1.003319 0.152863
v -0.186996 1.017807 0.146403
v -0.432543 0.880269 0.314257
v -0.419495 0.898157 0.315578
v -0.418103 0.893648 0.303766
v -0.201148 1.005319 -0.156308
v -0.210401 1.003319 -0.152863
v -0.197024 1.017807 -0.132600
v -0.432543 0.880269 -0.314257
v -0.429767 0.898157 -0.301440
v -0.418103 0.893648 -0.303766
v 0.086499 1.005319 -0.239604
v 0.080364 1.003319 -0.247340
v 0.065227 1.017807 -0.228356
v 0.165213 0.880269 -0.508483
v 0.153881 0.898157 -0.501882
v 0.159698 0.893649 -0.491508
v 0.370725 0.927309 -0.262863
v 0.352907 0.936400 -0.262112
v 0.362473 0.943912 -0.254018
v 0.452455 0.763574 -0.518508
v 0.451716 0.765426 -0.528683
v 0.440543 0.761285 -0.531662
v 0.629269 0.767521 -0.262864
v 0.648469 0.762912 -0.253297
v 0.632948 0.763572 -0.270084
v -0.135440 0.927310 -0.433807
v -0.140231 0.936401 -0.416630
v -0.129578 0.943913 -0.423226
v -0.353316 0.763574 -0.590536
v -0.363221 0.765427 -0.592977
v -0.369507 0.761286 -0.583272
v -0.055547 0.767523 -0.679697
v -0.040516 0.762914 -0.695001
v -0.061277 0.763574 -0.685427
v -0.454430 0.927309 -0.005246
v -0.439574 0.936400 0.004619
v -0.442555 0.943912 -0.007551
v -0.670817 0.763573 0.153533
v -0.676199 0.765425 0.162198
v -0.668912 0.761284 0.171176
v -0.663597 0.767522 -0.157211
v -0.673506 0.762913 -0.176236
v -0.670817 0.763573 -0.153533
v -0.145417 0.927310 0.430565
v -0.131445 0.936401 0.419485
v -0.143940 0.943912 0.418559
v -0.061277 0.763574 0.685427
v -0.054699 0.765427 0.693224
v -0.043909 0.761286 0.689067
v -0.354584 0.767523 0.582533
v -0.375740 0.762914 0.586078
v -0.353316 0.763574 0.590536
v 0.364558 0.927309 0.271351
v 0.358338 0.936400 0.254638
v 0.353596 0.943912 0.266236
v 0.632948 0.763572 0.270084
v 0.642396 0.765425 0.266237
v 0.641777 0.761283 0.254691
v 0.444451 0.767522 0.517240
v 0.441285 0.762914 0.538457
v 0.452455 0.763574 0.518508
v 0.350061 0.189368 -1.098694
v 0.362624 0.199678 -1.094565
v 0.366146 0.185651 -1.098347
v 0.678172 0.190098 -0.934871
v 0.679109 0.186501 -0.939618
v 0.665432 0.200550 -0.940932
v -0.936747 0.189367 -0.672440
v -0.928937 0.199678 -0.683113
v -0.931447 0.185650 -0.687631
v -0.679549 0.190098 -0.933870
v -0.683775 0.186501 -0.936228
v -0.689250 0.200550 -0.923627
v -0.929003 0.189367 0.683099
v -0.936740 0.199677 0.672374
v -0.941812 0.185650 0.673364
v -1.098157 0.190098 0.357703
v -1.101706 0.186501 0.360993
v -1.091413 0.200550 0.370095
v 0.362591 0.189368 1.094622
v 0.350000 0.199678 1.098666
v 0.349375 0.185651 1.103796
v 0.000851 0.190098 1.154946
v 0.002883 0.186501 1.159337
v 0.014720 0.200550 1.152361
v 1.153094 0.189368 -0.006588
v 1.153049 0.199678 0.006637
v 1.157735 0.185650 0.008817
v 1.098683 0.190098 0.356085
v 1.103487 0.186501 0.355509
v 1.100510 0.200550 0.342096
vn -0.3488 -0.0000 -0.9372
vn -0.8674 -0.0000 -0.4975
vn -0.7846 0.5275 -0.3257
vn 0.1484 0.8751 0.4606
vn -0.5911 -0.0000 -0.8066
vn -0.7071 -0.0000 0.7071
vn 0.1564 -0.0000 -0.9877
vn 0.2616 -0.0000 0.9652
vn -0.3090 -0.0000 0.9511
vn -0.9693 -0.0000 0.2458
vn 0.8090 -0.0000 0.5878
vn -0.9632 -0.0000 -0.2687
vn -0.3922 0.8751 0.2835
vn 0.8372 0.5150 -0.1841
vn -0.7855 0.5150 -0.3431
vn -0.0000 -1.0000 -0.0000
vn -0.0795 -0.9663 0.2447
vn -0.2573 -0.9663 -0.0000
vn 0.9372 -0.0000 -0.3488
vn -0.0795 -0.9663 -0.2447
vn 0.2081 -0.9663 -0.1512
vn 0.8903 -0.0054 -0.4554
vn 0.6285 -0.7080 -0.3221
vn -0.4384 0.8788 0.1882
vn -0.9879 -0.0054 -0.1549
vn -0.9879 -0.0064 0.1552
vn -0.7007 -0.7052 0.1079
vn -0.3210 0.7031 0.6345
vn -0.4526 -0.0054 0.8917
vn 0.9523 -0.0000 0.3051
vn -0.0198 0.6470 0.7622
vn 0.4640 0.6470 -0.6050
vn -0.4320 0.6470 -0.6283
vn 0.8510 0.2871 0.4398
vn 0.9411 0.2811 0.1879
vn 0.9511 -0.0000 0.3090
vn -0.8903 0.0054 0.4554
vn 0.1133 -0.7031 0.7020
vn 0.4528 0.0064 0.8916
vn 0.7027 -0.7031 0.1092
vn 0.9879 0.0064 -0.1552
vn -0.6567 0.5878 -0.4726
vn 0.2465 0.5878 -0.7705
vn -0.5043 -0.7031 -0.5013
vn -0.7080 0.0064 0.7062
vn 0.4526 0.0054 -0.8917
vn -0.8904 0.0064 -0.4551
vn 0.2081 -0.9663 0.1512
vn -0.5052 -0.7007 0.5038
vn -0.1122 -0.7080 -0.6973
vn 0.7080 -0.0064 -0.7062
vn -0.4528 -0.0064 -0.8916
vn -0.3192 -0.7052 -0.6331
vn 0.8090 0.5878 -0.0037
vn 0.1190 -0.0000 0.9929
vn -0.6978 -0.7080 -0.1088
vn -0.1580 -0.0054 -0.9874
vn -0.1133 0.7031 -0.7020
vn 0.5035 -0.7052 -0.4992
vn 0.6326 0.7031 -0.3247
vn -0.1577 -0.0064 0.9875
vn 0.5043 0.7031 0.5013
vn 0.7082 -0.0054 0.7060
vn 0.1577 0.0064 -0.9875
vn 0.1126 -0.7007 -0.7045
vn -0.0658 -0.0000 0.9978
vn 0.0673 0.5275 -0.8469
vn 0.3210 -0.7031 -0.6345
vn 0.6304 -0.7052 0.3246
vn 0.8904 -0.0064 0.4551
vn -0.3191 -0.7080 0.6300
vn 0.5006 -0.7080 0.4982
vn -0.7027 0.7031 -0.1092
vn -0.1139 -0.7052 0.6998
vn 0.6812 0.2871 -0.6734
vn -0.6524 0.5878 0.4785
vn -0.9804 -0.0000 0.1971
vn 0.2648 0.6198 0.7387
vn 0.4130 0.4869 0.7696
vn 0.2981 0.4824 -0.8237
vn 0.0836 0.5150 -0.8531
vn 0.9879 0.0054 0.1549
vn 0.1580 0.0054 0.9874
vn 0.7048 -0.7007 -0.1106
vn -0.7082 0.0054 -0.7060
vn 0.3230 -0.7007 0.6361
vn 0.2082 -0.9663 -0.1512
vn -0.6352 -0.7007 -0.3247
vn -0.6326 -0.7031 0.3247
vn -0.1553 0.2871 0.9452
vn -0.9470 0.2871 0.1444
vn -0.8718 0.2811 0.4012
vn -0.4300 0.2871 -0.8560
vn -0.6509 0.2811 -0.7052
vn 0.0435 0.8788 0.4751
vn 0.9090 -0.0000 0.4168
vn -0.7412 -0.0000 0.6712
vn -0.5691 0.5150 0.6410
vn -1.0000 -0.0000 -0.0000
vn 0.7188 0.6470 0.2544
vn 0.8393 0.3336 -0.4292
vn -0.7310 0.6470 0.2167
vn 0.6676 0.3336 0.6656
vn 0.4695 0.2810 -0.8370
vn -0.1489 0.3336 -0.9309
vn -0.4267 0.3336 0.8406
vn -0.9313 0.3336 -0.1461
vn 0.1121 0.2811 0.9531
vn 0.9287 -0.0000 0.3709
vn 0.6304 -0.7052 -0.3246
vn 0.8904 -0.0064 -0.4551
vn 0.6352 0.7007 -0.3247
vn 0.5006 -0.7080 -0.4982
vn 0.7082 -0.0054 -0.7060
vn -0.1139 -0.7052 -0.6998
vn -0.1577 -0.0064 -0.9875
vn -0.1126 0.7007 -0.7045
vn -0.3191 -0.7080 -0.6300
vn -0.4526 -0.0054 -0.8917
vn -0.7007 -0.7052 -0.1079
vn -0.9879 -0.0064 -0.1552
vn -0.7048 0.7007 -0.1106
vn -0.6978 -0.7080 0.1088
vn -0.9879 -0.0054 0.1549
vn -0.3192 -0.7052 0.6331
vn -0.4528 -0.0064 0.8916
vn -0.3230 0.7007 0.6361
vn -0.1122 -0.7080 0.6973
vn -0.1580 -0.0054 0.9874
vn 0.5035 -0.7052 0.4992
vn 0.7080 -0.0064 0.7062
vn 0.5052 0.7007 0.5038
vn 0.6285 -0.7080 0.3221
vn 0.8903 -0.0054 0.4554
vn 0.1133 -0.7031 -0.7020
vn 0.1580 0.0054 -0.9874
vn 0.3230 -0.7007 -0.6361
vn 0.4529 0.0064 -0.8916
vn -0.6326 -0.7031 -0.3247
vn -0.8903 0.0054 -0.4554
vn -0.5052 -0.7007 -0.5038
vn -0.7080 0.0064 -0.7062
vn -0.5043 -0.7031 0.5013
vn -0.7082 0.0054 0.7060
vn -0.6352 -0.7007 0.3247
vn -0.8904 0.0064 0.4551
vn 0.3210 -0.7031 0.6345
vn 0.4526 0.0054 0.8917
vn 0.1126 -0.7007 0.7045
vn 0.1577 0.0064 0.9875
vn 0.7027 -0.7031 -0.1092
vn 0.9879 0.0054 -0.1549
vn 0.7048 -0.7007 0.1106
vn 0.9879 0.0064 0.1552
vn 0.7490 -0.6523 0.1164
vn 0.6213 -0.7398 0.2583
vn 0.6373 -0.6972 0.3281
vn 0.6213 -0.7398 -0.2583
vn 0.6373 -0.6972 -0.3281
vn 0.6744 0.6523 -0.3461
vn 0.7490 -0.6523 -0.1164
vn 0.1208 -0.6523 0.7483
vn -0.0537 -0.7398 0.6707
vn -0.1151 -0.6972 0.7075
vn 0.4377 -0.7398 0.5111
vn 0.5090 -0.6972 0.5047
vn 0.5375 0.6523 0.5344
vn 0.3422 -0.6523 0.6764
vn -0.6744 -0.6523 0.3461
vn -0.6545 -0.7398 0.1562
vn -0.7085 -0.6972 0.1091
vn -0.3508 -0.7398 0.5742
vn -0.3227 -0.6972 0.6401
vn -0.3421 0.6523 0.6764
vn -0.5375 -0.6523 0.5344
vn -0.5375 -0.6523 -0.5344
vn -0.3508 -0.7398 -0.5742
vn -0.3227 -0.6972 -0.6401
vn -0.6545 -0.7398 -0.1562
vn -0.7085 -0.6972 -0.1091
vn -0.7490 0.6523 -0.1164
vn -0.6744 -0.6523 -0.3461
vn 0.3422 -0.6523 -0.6764
vn 0.4377 -0.7398 -0.5111
vn 0.5090 -0.6972 -0.5047
vn -0.0537 -0.7398 -0.6707
vn -0.1151 -0.6972 -0.7075
vn -0.1208 0.6523 -0.7483
vn 0.1208 -0.6523 -0.7483
vn 0.5221 -0.7639 -0.3793
vn 0.5571 0.7252 -0.4047
vn -0.1994 -0.7639 -0.6138
vn -0.2128 0.7252 -0.6549
vn -0.6453 -0.7639 -0.0000
vn -0.6886 0.7252 -0.0000
vn -0.1994 -0.7639 0.6138
vn -0.2128 0.7252 0.6549
vn 0.5221 -0.7639 0.3793
vn 0.5571 0.7252 0.4047
vn 0.2128 -0.7252 -0.6549
vn -0.5571 -0.7252 -0.4047
vn -0.5571 -0.7252 0.4047
vn 0.2128 -0.7252 0.6549
vn 0.6886 -0.7252 -0.0000
vn -0.5360 0.4147 0.7354
vn -0.8650 0.4147 -0.2825
vn 0.0014 0.4147 -0.9100
vn 0.8658 0.4147 -0.2799
vn 0.5337 0.4147 0.7370
vn -0.2514 0.6175 0.7453
vn 0.7995 0.3274 -0.5036
vn -0.7865 0.6175 -0.0088
vn 0.7260 0.3274 0.6048
vn -0.2347 0.6175 -0.7507
vn -0.3508 0.3274 0.8773
vn 0.6415 0.6175 -0.4552
vn -0.9428 0.3274 -0.0626
vn 0.6312 0.6175 0.4694
vn -0.2319 0.3274 -0.9160
vn 0.8853 0.3558 0.2995
vn 0.7538 0.3632 0.5476
vn 0.8270 0.2723 0.4918
vn -0.0113 0.3558 0.9345
vn -0.2879 0.3632 0.8861
vn -0.2121 0.2723 0.9385
vn -0.8922 0.3558 0.2781
vn -0.9317 0.3632 -0.0000
vn -0.9581 0.2723 0.0883
vn -0.5402 0.3558 -0.7626
vn -0.2879 0.3632 -0.8861
vn -0.3800 0.2723 -0.8840
vn 0.5584 0.3558 -0.7494
vn 0.7538 0.3632 -0.5476
vn 0.7233 0.2723 -0.6346
vn -0.1720 0.5390 0.8246
vn -0.6000 0.6015 0.5275
vn -0.7490 0.6561 0.0922
vn -0.1437 0.6561 0.7408
vn 0.3162 0.6015 0.7337
vn 0.7311 0.5389 0.4184
vn -0.8374 0.5390 0.0912
vn -0.6871 0.6015 -0.4077
vn -0.3192 0.6561 -0.6838
vn -0.3455 0.5390 -0.7682
vn 0.1754 0.6015 -0.7794
vn 0.5517 0.6562 -0.5149
vn 0.6238 0.5389 -0.5660
vn 0.7955 0.6015 -0.0740
vn 0.6602 0.6561 0.3656
vn 0.1700 0.5564 -0.8134
vn -0.1577 0.6636 -0.7313
vn -0.3859 0.8945 0.2256
vn -0.7210 0.5564 -0.4130
vn -0.7442 0.6636 -0.0760
vn 0.0953 0.8945 0.4368
vn -0.6156 0.5564 0.5581
vn -0.3023 0.6636 0.6843
vn 0.4448 0.8945 0.0443
vn 0.3406 0.5564 0.7579
vn 0.5574 0.6636 0.4989
vn 0.1796 0.8945 -0.4094
vn 0.8261 0.5564 -0.0897
vn 0.6468 0.6636 -0.3759
vn -0.3338 0.8945 -0.2973
vn 0.7410 0.5589 0.3722
vn -0.1250 0.5589 0.8198
vn -0.8183 0.5589 0.1345
vn -0.3807 0.5589 -0.7367
vn 0.5830 0.5589 -0.5897
vn 0.2165 0.4977 -0.8399
vn -0.7319 0.4977 -0.4654
vn -0.6688 0.4977 0.5522
vn 0.3185 0.4977 0.8067
vn 0.8657 0.4977 -0.0537
vn 0.7303 0.3755 -0.5707
vn 0.8558 0.4883 0.1708
vn 0.7684 0.3755 0.5182
vn 0.1020 0.4883 0.8667
vn -0.2554 0.3755 0.8910
vn -0.7928 0.4883 0.3648
vn -0.9263 0.3755 0.0325
vn -0.5919 0.4883 -0.6412
vn -0.3171 0.3755 -0.8709
vn 0.4269 0.4883 -0.7611
vn 0.6381 0.3706 0.6749
vn -0.4447 0.3706 0.8154
vn -0.9129 0.3706 -0.1709
vn -0.1196 0.3706 -0.9211
vn 0.8390 0.3706 -0.3983
vn 0.1111 0.8922 0.4378
vn 0.5000 0.8572 0.1235
vn -0.3821 0.8922 0.2409
vn -0.3472 0.8922 -0.2889
vn 0.1675 0.8922 -0.4195
vn -0.0259 0.8058 0.5916
vn -0.5707 0.8058 0.1581
vn -0.3268 0.8058 -0.4939
vn 0.3687 0.8058 -0.4634
vn 0.5547 0.8058 0.2075
vn 0.9090 0.2725 0.3153
vn 0.7753 0.2858 0.5633
vn -0.0190 0.2725 0.9620
vn -0.2961 0.2858 0.9114
vn -0.9208 0.2725 0.2792
vn -0.9583 0.2858 -0.0000
vn -0.5501 0.2725 -0.7894
vn -0.2961 0.2858 -0.9114
vn 0.5808 0.2725 -0.7671
vn 0.7753 0.2858 -0.5633
vn 0.0370 0.8572 0.5137
vn -0.5278 0.5753 0.6249
vn 0.4507 0.8922 0.0297
vn 0.4312 0.5753 0.6950
vn -0.4771 0.8572 0.1939
vn -0.7574 0.5753 -0.3088
vn -0.3319 0.8572 -0.3938
vn 0.0597 0.5753 -0.8158
vn 0.2720 0.8572 -0.4373
vn 0.7943 0.5753 -0.1953
vn 0.2460 0.5481 -0.7994
vn -0.3857 0.9023 0.1923
vn 0.3611 0.8833 -0.2991
vn -0.6843 0.5481 -0.4810
vn 0.0637 0.9023 0.4263
vn -0.1729 0.8833 -0.4358
vn -0.6689 0.5481 0.5022
vn 0.4251 0.9023 0.0711
vn -0.4679 0.8833 0.0297
vn 0.2709 0.5481 0.7913
vn 0.1990 0.9023 -0.3823
vn -0.1163 0.8833 0.4542
vn 0.8363 0.5481 -0.0131
vn -0.3021 0.9023 -0.3074
vn 0.3960 0.8833 0.2510
vn 0.0851 0.2793 -0.9564
vn 0.6880 0.6373 -0.3471
vn -0.8833 0.2793 -0.3765
vn -0.1175 0.6373 -0.7616
vn -0.6311 0.2793 0.7237
vn -0.7606 0.6373 -0.1236
vn 0.4933 0.2793 0.8238
vn -0.3526 0.6373 0.6852
vn 0.9359 0.2793 -0.2146
vn 0.5427 0.6373 0.5471
vn 0.0070 0.6583 0.7527
vn -0.7137 0.6583 0.2392
vn -0.4481 0.6583 -0.6048
vn 0.4368 0.6583 -0.6131
vn 0.7180 0.6583 0.2259
vn 0.9323 0.3170 0.1743
vn 0.8498 0.2918 0.4390
vn 0.6824 0.2898 0.6711
vn 0.1224 0.3170 0.9405
vn -0.1549 0.2918 0.9438
vn -0.4273 0.2898 0.8564
vn -0.8567 0.3170 0.4070
vn -0.9455 0.2918 0.1443
vn -0.9465 0.2898 -0.1418
vn -0.6518 0.3170 -0.6890
vn -0.4294 0.2918 -0.8546
vn -0.1577 0.2898 -0.9440
vn 0.4538 0.3170 -0.8328
vn 0.6801 0.2918 -0.6725
vn 0.8491 0.2898 -0.4417
vn -0.6208 0.6198 0.4801
vn -0.6044 0.4869 0.6306
vn 0.4338 0.5150 0.7393
vn 0.2535 0.5878 0.7683
vn -0.6484 0.6198 -0.4420
vn -0.7865 0.4869 -0.3799
vn 0.2200 0.6198 -0.7533
vn 0.1183 0.4869 -0.8654
vn 0.7844 0.6198 -0.0235
vn 0.8596 0.4869 -0.1549
vn -0.4614 0.8587 0.2230
vn -0.3586 0.8964 0.2605
vn 0.0760 0.5625 -0.8233
vn 0.2770 0.4522 -0.8478
vn 0.9090 -0.0000 0.4169
vn 0.0695 0.8587 0.5077
vn 0.1370 0.8964 0.4216
vn -0.7595 0.5625 -0.3267
vn 0.5878 -0.0000 -0.8090
vn -0.7207 0.4522 -0.5254
vn 0.9988 -0.0000 0.0495
vn 0.4093 -0.0000 0.9124
vn 0.4873 -0.0000 -0.8732
vn 0.4155 -0.0000 -0.9096
vn 0.9948 -0.0000 0.1017
vn -0.5878 -0.0000 -0.8090
vn -0.6051 -0.0000 0.7962
vn -0.5532 -0.0000 0.8331
vn 0.5043 0.8587 0.0908
vn -0.9991 -0.0000 0.0421
vn 0.4433 0.8964 -0.0000
vn -0.7367 -0.0000 -0.6762
vn -0.5454 0.5625 0.6214
vn 0.8331 -0.0000 0.5532
vn -0.7224 0.4522 0.5231
vn -0.0000 -0.0000 1.0000
vn -0.8371 -0.0000 0.5470
vn 0.0041 -0.0000 1.0000
vn -0.1156 -0.0000 0.9933
vn -0.9075 -0.0000 0.4200
vn 0.5702 -0.0000 0.8215
vn 0.4540 -0.0000 0.8910
vn -0.8708 -0.0000 0.4917
vn 0.2422 0.8587 -0.4516
vn -0.7451 -0.0000 -0.6670
vn 0.1370 0.8964 -0.4216
vn -0.7789 -0.0000 -0.6271
vn 0.4224 0.5625 0.7107
vn 0.3557 -0.0000 -0.9346
vn 0.2742 0.4522 0.8487
vn 0.9942 -0.0000 -0.1074
vn 0.1985 -0.0000 0.9801
vn -0.8646 -0.0000 0.5025
vn 0.2107 -0.0000 0.9776
vn -0.9511 -0.0000 0.3090
vn 0.9575 -0.0000 -0.2885
vn 0.5845 -0.0000 -0.8114
vn 0.6773 -0.0000 -0.7357
vn -0.3546 0.8587 -0.3699
vn 0.8090 -0.0000 -0.5878
vn -0.3586 0.8964 -0.2605
vn -0.8910 -0.0000 -0.4540
vn 0.8065 0.5625 -0.1822
vn 0.6213 -0.0000 0.7835
vn 0.8919 0.4522 0.0014
vn -0.2687 -0.0000 0.9632
vn 0.6397 -0.0000 -0.7686
vn 0.9935 -0.0000 0.1141
vn 0.9811 -0.0000 0.1936
vn 0.0215 -0.0000 -0.9998
vn -0.9442 -0.0000 -0.3294
vn 0.6993 0.3296 -0.6343
vn -0.3872 0.3296 -0.8611
vn -0.9386 0.3296 0.1022
vn -0.1929 0.3296 0.9242
vn 0.8194 0.3296 0.4690
vn -0.9498 -0.0000 0.3129
vn -0.4904 -0.0000 -0.8715
vn -0.0421 -0.0000 -0.9991
vn 0.7835 -0.0000 -0.6214
vn 0.2051 -0.0000 -0.9787
vn 0.4113 0.4116 -0.8132
vn -0.6463 0.4116 -0.6425
vn -0.8108 0.4116 0.4161
vn 0.1452 0.4116 0.8997
vn 0.9006 0.4116 0.1399
vn -0.2674 0.7816 0.5635
vn 0.9877 -0.0000 -0.1564
vn 0.8087 0.3084 -0.5010
vn -0.6186 0.7816 -0.0802
vn 0.4041 -0.0000 -0.9147
vn 0.7263 0.3084 0.6143
vn -0.1149 0.7816 -0.6131
vn -0.6799 -0.0000 -0.7333
vn -0.3598 0.3084 0.8806
vn 0.5476 0.7816 -0.2987
vn -0.3090 -0.0000 -0.9511
vn -0.9487 0.3084 -0.0700
vn 0.4533 0.7816 0.4285
vn -0.5333 -0.0000 -0.8459
vn -0.2265 0.3084 -0.9239
vn 0.0855 0.6890 0.7197
vn -0.6580 0.6890 0.3037
vn -0.4922 0.6890 -0.5320
vn 0.3538 0.6890 -0.6325
vn 0.7109 0.6891 0.1410
vn 0.8996 0.4151 0.1357
vn 0.8349 0.3492 0.4254
vn 0.6606 0.3553 0.6613
vn 0.1490 0.4151 0.8975
vn -0.1466 0.3492 0.9255
vn -0.4249 0.3553 0.8326
vn -0.8075 0.4151 0.4190
vn -0.9255 0.3492 0.1466
vn -0.9231 0.3553 -0.1468
vn -0.6480 0.4151 -0.6385
vn -0.4254 0.3492 -0.8349
vn -0.1457 0.3554 -0.9233
vn 0.4070 0.4152 -0.8136
vn 0.6626 0.3492 -0.6626
vn 0.8331 0.3553 -0.4239
vn -0.3495 0.8112 0.4688
vn -0.4573 0.5847 0.6700
vn 0.5768 0.6678 0.4705
vn 0.3012 0.7051 0.6420
vn -0.5539 0.8112 -0.1875
vn -0.7786 0.5847 -0.2278
vn 0.0072 0.8112 -0.5847
vn -0.0239 0.5847 -0.8109
vn 0.5583 0.8112 -0.1739
vn 0.7638 0.5847 -0.2733
vn -0.3677 0.9253 0.0926
vn 0.1417 0.9856 -0.0922
vn 0.1435 0.7860 -0.6013
vn 0.3525 0.5704 -0.7418
vn -0.0256 0.9253 0.3783
vn -0.0439 0.9856 -0.1632
vn -0.5275 0.7860 -0.3223
vn -0.5966 0.5704 -0.5645
vn 0.3518 0.9254 0.1412
vn -0.1688 0.9856 -0.0087
vn -0.4695 0.7860 0.4021
vn -0.7212 0.5704 0.3930
vn 0.2430 0.9253 -0.2910
vn -0.0604 0.9856 0.1579
vn 0.2373 0.7860 0.5708
vn 0.1508 0.5704 0.8074
vn -0.2017 0.9253 -0.3211
vn 0.1315 0.9856 0.1063
vn 0.6162 0.7860 -0.0493
vn 0.8145 0.5704 0.1060
vn 0.7310 0.3746 -0.5704
vn -0.3166 0.3746 -0.8715
vn -0.9266 0.3746 0.0318
vn -0.2561 0.3746 0.8911
vn 0.7684 0.3746 0.5189
vn 0.4258 0.3337 -0.8411
vn -0.6683 0.3337 -0.6648
vn -0.8388 0.3337 0.4302
vn 0.1499 0.3337 0.9307
vn 0.9315 0.3337 0.1450
vn -0.2575 0.7857 0.5624
vn 0.8126 0.4021 -0.4219
vn -0.6145 0.7857 -0.0711
vn 0.6524 0.4021 0.6424
vn -0.1222 0.7857 -0.6064
vn -0.4094 0.4021 0.8190
vn 0.5389 0.7857 -0.3036
vn -0.9054 0.4021 -0.1363
vn 0.4553 0.7857 0.4187
vn -0.1502 0.4021 -0.9032
vn 0.1734 0.5981 0.7824
vn 0.0548 -0.0000 0.9985
vn -0.8267 -0.0000 -0.5626
vn -0.6905 0.5981 0.4067
vn -0.9327 -0.0000 0.3606
vn 0.2796 -0.0000 -0.9601
vn -0.6002 0.5981 -0.5311
vn -0.6312 -0.0000 -0.7756
vn 0.9995 -0.0000 -0.0307
vn 0.3196 0.5981 -0.7349
vn 0.5426 -0.0000 -0.8400
vn 0.3381 -0.0000 0.9411
vn 0.7977 0.5981 0.0769
vn 0.9666 -0.0000 0.2565
vn -0.7906 -0.0000 0.6124
vn 0.6690 0.7247 0.1651
vn 0.8032 0.5519 0.2241
vn -0.9234 -0.0000 0.3837
vn 0.4060 -0.0000 -0.9139
vn 0.8022 0.5529 -0.2254
vn 0.7062 0.6996 -0.1091
vn 0.6545 0.7398 -0.1562
vn 0.7382 -0.0000 -0.6746
vn 0.0497 0.7247 0.6872
vn 0.0351 0.5519 0.8331
vn -0.6503 -0.0000 -0.7597
vn 0.9946 -0.0000 0.1037
vn 0.4623 0.5529 0.6933
vn 0.3220 0.6996 0.6379
vn 0.3508 0.7398 0.5742
vn 0.8697 -0.0000 0.4936
vn -0.6382 0.7247 0.2596
vn -0.7815 0.5519 0.2908
vn 0.5215 -0.0000 -0.8532
vn 0.2087 -0.0000 0.9780
vn -0.5165 0.5529 0.6539
vn -0.5072 0.6996 0.5034
vn -0.4377 0.7398 0.5111
vn -0.2007 -0.0000 0.9797
vn -0.4442 0.7247 -0.5268
vn -0.5181 0.5519 -0.6534
vn 0.9726 -0.0000 0.2323
vn -0.7815 0.5529 -0.2892
vn -0.9937 -0.0000 0.1119
vn -0.6354 0.6996 -0.3268
vn -0.6213 0.7398 -0.2583
vn -0.8656 -0.0000 0.5007
vn 0.3637 0.7247 -0.5852
vn 0.4613 0.5519 -0.6947
vn 0.0796 -0.0000 0.9968
vn -0.7437 -0.0000 -0.6685
vn 0.0335 0.5529 -0.8326
vn 0.1144 0.6996 -0.7053
vn 0.0537 0.7398 -0.6707
vn -0.4135 -0.0000 -0.9105
vn 0.7066 0.6254 0.3309
vn 0.8773 -0.0000 0.4799
vn 0.5354 0.6244 0.5687
vn 0.7275 -0.0000 0.6861
vn 0.6726 0.5557 0.4887
vn -0.0963 0.6254 0.7743
vn -0.1854 -0.0000 0.9827
vn -0.3754 0.6244 0.6850
vn -0.4277 -0.0000 0.9039
vn -0.2569 0.5557 0.7907
vn -0.7662 0.6254 0.1476
vn -0.9919 -0.0000 0.1274
vn -0.7674 0.6244 -0.1453
vn -0.9919 -0.0000 -0.1274
vn -0.8314 0.5557 -0.0000
vn -0.4277 -0.0000 -0.9039
vn -0.3772 0.6254 -0.6830
vn -0.0989 0.6244 -0.7748
vn -0.2569 0.5557 -0.7907
vn -0.1854 -0.0000 -0.9827
vn 0.5331 0.6254 -0.5698
vn 0.7275 -0.0000 -0.6861
vn 0.7063 0.6244 -0.3335
vn 0.8773 -0.0000 -0.4799
vn 0.6726 0.5557 -0.4887
vn 0.0331 0.9145 0.4032
vn 0.6538 -0.0000 0.7567
vn -0.0144 0.8363 0.5481
vn 0.1098 0.7611 0.6392
vn 0.0989 -0.0000 -0.9951
vn -0.9158 -0.0000 -0.4015
vn 0.6419 0.7611 0.0931
vn 0.3937 0.9145 0.0931
vn 0.5168 0.8363 0.1830
vn 0.9217 -0.0000 -0.3880
vn -0.5176 -0.0000 0.8556
vn -0.3733 0.9145 0.1561
vn -0.5257 0.8363 0.1557
vn -0.5740 0.7611 0.3019
vn 0.9769 -0.0000 -0.2135
vn -0.9737 -0.0000 -0.2278
vn -0.2638 0.9145 -0.3068
vn -0.4645 0.7611 -0.4526
vn -0.3105 0.8363 -0.4519
vn 0.5049 -0.0000 0.8632
vn 0.2102 0.9145 -0.3457
vn -0.0842 -0.0000 -0.9965
vn 0.3338 0.8363 -0.4350
vn 0.2869 0.7611 -0.5817
vn -0.6649 -0.0000 0.7469
vn -0.0000 -0.0000 -1.0000
vn 0.4887 0.7955 -0.3582
vn -0.8090 -0.0000 0.5878
vn -0.1896 0.7955 -0.5755
vn -0.9511 -0.0000 -0.3090
vn 0.3090 -0.0000 0.9511
vn -0.5878 -0.0000 0.8090
vn -0.6059 0.7955 0.0025
vn 1.0000 -0.0000 -0.0000
vn 0.5878 -0.0000 0.8090
vn -0.1849 0.7955 0.5770
vn 0.3090 -0.0000 -0.9511
vn 0.4917 0.7955 0.3541
vn 0.9511 -0.0000 -0.3090
vn -0.8090 -0.0000 -0.5878
vn 0.9880 -0.0000 0.1546
vn 0.6712 0.6546 0.3479
vn 0.6672 0.7357 0.1164
vn 0.6327 0.7031 0.3247
vn 0.1583 -0.0000 0.9874
vn -0.1234 0.6546 0.7459
vn 0.0955 0.7357 0.6705
vn -0.1133 0.7031 0.7020
vn -0.6082 0.7357 0.2980
vn -0.7027 0.7031 0.1092
vn -0.8902 -0.0000 0.4556
vn -0.7475 0.6546 0.1131
vn -0.7084 -0.0000 -0.7058
vn -0.3386 0.6546 -0.6760
vn -0.4714 0.7357 -0.4863
vn -0.3210 0.7031 -0.6345
vn 0.4523 -0.0000 -0.8919
vn 0.5383 0.6546 -0.5309
vn 0.3169 0.7357 -0.5986
vn 0.5043 0.7031 -0.5014
vn 0.1122 0.7080 -0.6973
vn -0.6285 0.7080 -0.3221
vn -0.5006 0.7080 0.4982
vn 0.3191 0.7080 0.6300
vn 0.6978 0.7080 -0.1088
vn 0.8247 0.5655 -0.0049
vn 0.7981 0.5982 -0.0725
vn 0.6484 0.7613 0.0049
vn 0.8270 0.5545 -0.0926
vn 0.8299 0.5514 0.0855
vn 0.2595 0.5655 0.7828
vn 0.3156 0.5982 0.7366
vn 0.1957 0.7613 0.6182
vn 0.3436 0.5545 0.7579
vn 0.1751 0.5514 0.8157
vn -0.6643 0.5655 0.4887
vn -0.6030 0.5982 0.5278
vn -0.5275 0.7613 0.3772
vn -0.6146 0.5545 0.5610
vn -0.7216 0.5514 0.4186
vn -0.6701 0.5655 -0.4808
vn -0.6883 0.5982 -0.4104
vn -0.5217 0.7613 -0.3851
vn -0.7235 0.5545 -0.4112
vn -0.6211 0.5514 -0.5570
vn 0.2502 0.5655 -0.7859
vn 0.1776 0.5982 -0.7814
vn 0.2050 0.7613 -0.6152
vn 0.1675 0.5545 -0.8151
vn 0.3378 0.5514 -0.7628
vn 0.5493 0.5965 0.5852
vn 0.3904 0.6375 0.6642
vn -0.3868 0.5966 0.7032
vn -0.5110 0.6375 0.5765
vn -0.7883 0.5965 -0.1506
vn -0.7062 0.6375 -0.3078
vn -0.1004 0.5966 -0.7963
vn 0.0745 0.6375 -0.7668
vn 0.7263 0.5965 -0.3416
vn 0.7523 0.6375 -0.1661
vn 0.0826 0.6415 0.7627
vn 0.2845 0.7536 0.5926
vn 0.1325 0.9872 0.0892
vn 0.3829 0.9202 -0.0818
vn 0.1257 0.9872 -0.0984
vn 0.2233 0.9589 -0.1748
vn 0.2353 0.9589 0.1583
vn -0.6998 0.6415 0.3143
vn -0.4757 0.7536 0.4537
vn -0.5151 0.6415 -0.5684
vn -0.5785 0.7536 -0.3122
vn 0.3814 0.6415 -0.6656
vn 0.1181 0.7536 -0.6466
vn 0.7074 0.6983 0.1090
vn 0.1150 0.6983 0.7065
vn -0.6364 0.6983 0.3276
vn -0.5083 0.6983 -0.5040
vn 0.3223 0.6983 -0.6391
vn 0.7274 0.5931 0.3452
vn 0.7509 0.6415 0.1571
vn 0.5867 0.6800 0.4397
vn -0.1035 0.5931 0.7984
vn -0.2369 0.6800 0.6939
vn -0.7914 0.5931 0.1483
vn -0.7331 0.6800 -0.0109
vn -0.3856 0.5931 -0.7068
vn -0.2162 0.6800 -0.7006
vn 0.5530 0.5931 -0.5851
vn 0.5995 0.6800 -0.4221
vn -0.0439 0.9872 0.1535
vn 0.1961 0.9202 0.3388
vn -0.0779 0.9589 0.2727
vn 0.3458 0.8289 0.4397
vn 0.6515 0.7536 -0.0875
vn 0.5251 0.8289 -0.1930
vn -0.1596 0.9872 0.0057
vn -0.2616 0.9202 0.2912
vn -0.2834 0.9589 0.0102
vn -0.3113 0.8289 0.4648
vn -0.0548 0.9872 -0.1500
vn -0.3578 0.9202 -0.1588
vn -0.0973 0.9589 -0.2664
vn -0.5382 0.8289 -0.1525
vn 0.0405 0.9202 -0.3894
vn -0.0213 0.8289 -0.5590
vn -0.6912 0.4824 -0.5381
vn 0.4653 0.8788 0.1055
vn 0.4839 0.8751 0.0012
vn -0.5522 0.5275 0.6456
vn -0.7253 0.4824 0.4911
vn 0.2441 0.8788 -0.4099
vn 0.1507 0.8751 -0.4599
vn 0.4433 0.5275 0.7247
vn 0.2429 0.4824 0.8416
vn 0.5844 -0.0000 -0.8114
vn -0.3144 0.8788 -0.3588
vn -0.3908 0.8751 -0.2854
vn 0.8262 0.5275 -0.1977
vn 0.8755 0.4824 0.0290
vn 0.6886 0.3120 -0.6546
vn -0.4098 0.3120 -0.8572
vn -0.9418 0.3120 0.1249
vn -0.1723 0.3120 0.9343
vn 0.8354 0.3120 0.4526
vn 0.7835 -0.0000 -0.6213
vn 0.4535 0.1924 -0.8702
vn -0.6875 0.1924 -0.7002
vn -0.8784 0.1924 0.4375
vn 0.1446 0.1924 0.9706
vn 0.9678 0.1924 0.1624
vn -0.4418 0.6800 0.5852
vn 0.8086 0.3400 -0.4801
vn -0.6931 0.6800 -0.2394
vn 0.7065 0.3400 0.6207
vn 0.0135 0.6800 -0.7331
vn -0.3720 0.3400 0.8637
vn 0.7014 0.6800 -0.2137
vn -0.9364 0.3400 -0.0869
vn 0.4200 0.6800 0.6010
vn -0.2067 0.3400 -0.9174
vn -0.0234 0.6465 0.7626
vn -0.7325 0.6465 0.2134
vn -0.4293 0.6465 -0.6307
vn 0.4672 0.6465 -0.6032
vn 0.7180 0.6465 0.2579
vn 0.9298 0.3257 0.1716
vn 0.8330 0.3552 0.4242
vn 0.6480 0.3874 0.6557
vn 0.1241 0.3257 0.9373
vn -0.1461 0.3552 0.9233
vn -0.4234 0.3874 0.8189
vn -0.8531 0.3257 0.4077
vn -0.9233 0.3552 0.1464
vn -0.9097 0.3874 -0.1496
vn -0.6513 0.3257 -0.6853
vn -0.4245 0.3552 -0.8328
vn -0.1388 0.3874 -0.9114
vn 0.4505 0.3257 -0.8312
vn 0.6609 0.3552 -0.6611
vn 0.8239 0.3874 -0.4137
vn -0.5175 0.7051 0.4848
vn -0.2692 0.6678 0.6940
vn 0.4960 0.5847 0.6420
vn 0.3379 0.8112 0.4773
vn -0.6210 0.7051 -0.3423
vn -0.7432 0.6678 -0.0416
vn 0.1336 0.7051 -0.6964
vn -0.1901 0.6678 -0.7197
vn 0.7036 0.7051 -0.0881
vn 0.6257 0.6678 -0.4032
vn -0.1373 0.9716 -0.1929
vn -0.2633 0.9456 0.1913
vn 0.1084 0.6615 -0.7421
vn 0.4455 0.7017 -0.5560
vn -0.2259 0.9716 0.0710
vn 0.1006 0.9456 0.3095
vn -0.6722 0.6615 -0.3324
vn -0.3911 0.7017 -0.5955
vn -0.0023 0.9716 0.2368
vn 0.3255 0.9456 -0.0000
vn -0.5239 0.6615 0.5366
vn -0.6872 0.7017 0.1880
vn 0.2245 0.9716 0.0754
vn 0.1006 0.9456 -0.3095
vn 0.3485 0.6615 0.6641
vn -0.0336 0.7017 0.7117
vn 0.1411 0.9716 -0.1902
vn -0.2633 0.9456 -0.1913
vn 0.7393 0.6615 -0.1262
vn 0.6664 0.7017 0.2519
vn 0.7154 0.3463 -0.6068
vn -0.3560 0.3463 -0.8679
vn -0.9355 0.3463 0.0704
vn -0.2221 0.3463 0.9114
vn 0.7982 0.3463 0.4929
vn 0.4254 0.3355 -0.8405
vn -0.6679 0.3355 -0.6643
vn -0.8382 0.3355 0.4300
vn 0.1499 0.3355 0.9300
vn 0.9308 0.3355 0.1448
vn -0.2441 0.7919 0.5598
vn 0.8010 0.4735 -0.3664
vn -0.6078 0.7919 -0.0592
vn 0.5960 0.4735 0.6485
vn -0.1315 0.7919 -0.5964
vn -0.4326 0.4735 0.7672
vn 0.5265 0.7919 -0.3094
vn -0.8634 0.4735 -0.1743
vn 0.4569 0.7919 0.4052
vn -0.1010 0.4735 -0.8750
vn 0.6978 0.7080 0.1088
vn 0.6353 0.7006 0.3248
vn 0.1122 0.7080 0.6973
vn -0.1126 0.7006 0.7046
vn -0.6285 0.7080 0.3221
vn -0.7049 0.7006 0.1107
vn -0.5006 0.7080 -0.4982
vn -0.3231 0.7006 -0.6362
vn 0.3191 0.7080 -0.6300
vn 0.5052 0.7006 -0.5038
vn 0.1138 0.7052 -0.6998
vn -0.6304 0.7052 -0.3245
vn -0.5034 0.7052 0.4993
vn 0.3193 0.7052 0.6330
vn 0.7007 0.7052 -0.1080
vt 0.658380 0.431785
vt 0.659830 0.431737
vt 0.659830 0.431737
vt 0.294207 0.354286
vt 0.294207 0.354286
vt 0.296869 0.354286
vt 0.637075 0.394883
vt 0.637448 0.392998
vt 0.659081 0.430373
vt 0.657843 0.354286
vt 0.659068 0.355552
vt 0.615799 0.355535
vt 0.567227 0.274770
vt 0.567227 0.274770
vt 0.569185 0.277293
vt 0.614371 0.355557
vt 0.614371 0.355557
vt 0.614885 0.354286
vt 0.250735 0.355557
vt 0.250735 0.355557
vt 0.251249 0.354286
vt 0.521314 0.354286
vt 0.521841 0.355812
vt 0.521837 0.355829
vt 0.089547 0.314921
vt 0.092272 0.314921
vt 0.092272 0.314921
vt 0.862274 0.314921
vt 0.865278 0.314921
vt 0.271365 0.314921
vt 0.274091 0.314921
vt 0.274091 0.314921
vt 0.635630 0.392380
vt 0.635630 0.392380
vt 0.476025 0.354286
vt 0.477250 0.355552
vt 0.433981 0.355535
vt 0.498861 0.392994
vt 0.520433 0.355599
vt 0.862497 0.392994
vt 0.884069 0.355599
vt 0.885473 0.355829
vt 0.204546 0.196826
vt 0.159092 0.196826
vt 0.568182 0.196826
vt 0.113637 0.196826
vt 0.068182 0.196826
vt 0.931818 0.196826
vt 0.750000 0.196826
vt 0.840909 0.196826
vt 0.795455 0.196826
vt 0.886364 0.196826
vt 0.271994 0.392380
vt 0.273439 0.394883
vt 0.704546 0.196826
vt 0.659091 0.196826
vt 0.522728 0.196826
vt 0.477273 0.196826
vt 0.386364 0.196826
vt 0.454546 0.227604
vt 0.454546 0.244029
vt 0.409557 0.244402
vt 0.454546 0.215529
vt 0.408626 0.227980
vt 0.478687 0.354286
vt 0.521314 0.354286
vt 0.818182 0.227604
vt 0.818182 0.244029
vt 0.773193 0.244402
vt 0.864102 0.227980
vt 0.863171 0.244402
vt 0.818182 0.215529
vt 0.864936 0.216457
vt 0.090910 0.244029
vt 0.090910 0.255037
vt 0.047883 0.255191
vt 0.090910 0.227604
vt 0.046903 0.243996
vt 0.203591 0.274770
vt 0.205549 0.277293
vt 0.361171 0.313551
vt 0.339616 0.275960
vt 0.341933 0.277328
vt 0.724807 0.313551
vt 0.703252 0.275960
vt 0.705569 0.277328
vt 0.906625 0.313551
vt 0.885070 0.275960
vt 0.887387 0.277328
vt 0.316820 0.314921
vt 0.272717 0.313666
vt 0.319824 0.314921
vt 0.318135 0.313621
vt 0.500891 0.392109
vt 0.499271 0.394916
vt 0.499262 0.394931
vt 0.909091 0.228353
vt 0.909091 0.244778
vt 0.137663 0.216457
vt 0.181819 0.217345
vt 0.181819 0.228354
vt 0.226808 0.227980
vt 0.227739 0.244402
vt 0.181819 0.244778
vt 0.319481 0.216457
vt 0.363637 0.217345
vt 0.363637 0.228353
vt 0.363637 0.244778
vt 0.840899 0.430373
vt 0.862898 0.394931
vt 0.680679 0.392994
vt 0.681080 0.394931
vt 0.683118 0.216457
vt 0.727273 0.217345
vt 0.727273 0.228353
vt 0.953097 0.228386
vt 0.954039 0.244805
vt 0.500466 0.227980
vt 0.545455 0.228353
vt 0.545455 0.244778
vt 0.772262 0.227980
vt 0.727273 0.244778
vt 0.295455 0.196826
vt 0.250001 0.196826
vt 0.952118 0.217191
vt 0.636364 0.215530
vt 0.636364 0.227604
vt 0.590444 0.227980
vt 0.499535 0.244402
vt 0.682284 0.227980
vt 0.681353 0.244402
vt 0.477263 0.430373
vt 0.317837 0.256705
vt 0.318015 0.255948
vt 0.318015 0.255948
vt 0.636364 0.244028
vt 0.591375 0.244402
vt 0.636364 0.255037
vt 0.592208 0.255925
vt 0.501300 0.216457
vt 0.340910 0.196826
vt 0.613637 0.196826
vt 0.454546 0.255037
vt 0.410391 0.255925
vt 0.136830 0.227980
vt 0.135899 0.244402
vt 0.272728 0.244029
vt 0.272728 0.255037
vt 0.228573 0.255925
vt 0.272728 0.227604
vt 0.589611 0.216457
vt 0.135001 0.314921
vt 0.138006 0.314921
vt 0.138006 0.314921
vt 0.455257 0.394883
vt 0.455630 0.392998
vt 0.545455 0.217345
vt 0.272728 0.215529
vt 0.318648 0.227980
vt 0.317717 0.244402
vt 0.090910 0.215529
vt 0.045962 0.227577
vt 0.818182 0.255037
vt 0.774026 0.255925
vt 0.498638 0.314921
vt 0.455909 0.314921
vt 0.454534 0.313666
vt 0.113627 0.430373
vt 0.135225 0.392994
vt 0.135626 0.394931
vt 0.771724 0.313184
vt 0.771724 0.313184
vt 0.774090 0.314921
vt 0.317444 0.394931
vt 0.296194 0.431737
vt 0.295445 0.430373
vt 0.340019 0.355829
vt 0.319073 0.392109
vt 0.317043 0.392994
vt 0.453812 0.392380
vt 0.432553 0.355557
vt 0.702251 0.355599
vt 0.703655 0.355829
vt 0.407793 0.216457
vt 0.225974 0.216457
vt 0.431819 0.196826
vt 0.771428 0.216457
vt 0.909091 0.217345
vt 0.090898 0.313666
vt 0.819545 0.314921
vt 0.818170 0.313666
vt 0.863589 0.313621
vt 0.680456 0.314921
vt 0.637727 0.314921
vt 0.636352 0.313666
vt 0.683460 0.314921
vt 0.681771 0.313621
vt 0.660505 0.354286
vt 0.703132 0.354286
vt 0.226270 0.313184
vt 0.226270 0.313184
vt 0.228636 0.314921
vt 0.476025 0.354286
vt 0.478687 0.354286
vt 0.156797 0.355599
vt 0.158201 0.355829
vt 0.816819 0.314921
vt 0.819545 0.314921
vt 0.542989 0.313551
vt 0.521434 0.275960
vt 0.523751 0.277328
vt 0.453183 0.314921
vt 0.410454 0.314921
vt 0.409827 0.313647
vt 0.179353 0.313551
vt 0.157798 0.275960
vt 0.160115 0.277328
vt 0.228009 0.313647
vt 0.501642 0.314921
vt 0.499953 0.313621
vt 0.635001 0.314921
vt 0.592272 0.314921
vt 0.591645 0.313647
vt 0.046818 0.314921
vt 0.046190 0.313647
vt 0.773463 0.313647
vt 0.136317 0.313621
vt 0.319824 0.314921
vt 0.045868 0.215344
vt 0.431819 0.275556
vt 0.250001 0.275556
vt 0.977273 0.196826
vt 0.068182 0.275556
vt 0.795455 0.275556
vt 0.613637 0.275556
vt 0.477273 0.275556
vt 0.659091 0.275556
vt 0.840909 0.275556
vt 0.113637 0.275556
vt 0.295455 0.275556
vt 0.180796 0.313149
vt 0.180177 0.314921
vt 0.908068 0.313149
vt 0.907449 0.314921
vt 0.726250 0.313149
vt 0.725631 0.314921
vt 0.544432 0.313149
vt 0.543813 0.314921
vt 0.362614 0.313149
vt 0.361995 0.314921
vt 0.339956 0.274777
vt 0.385409 0.274770
vt 0.387636 0.275362
vt 0.387367 0.277293
vt 0.158138 0.274777
vt 0.205818 0.275362
vt 0.885410 0.274777
vt 0.930863 0.274770
vt 0.932939 0.275519
vt 0.931818 0.275556
vt 0.703592 0.274777
vt 0.751003 0.277293
vt 0.749045 0.274770
vt 0.751272 0.275362
vt 0.521774 0.274777
vt 0.569454 0.275362
vt 0.044452 0.313184
vt 0.589906 0.313184
vt 0.408088 0.313184
vt 0.114376 0.431737
vt 0.112926 0.431785
vt 0.137255 0.392109
vt 0.157678 0.354286
vt 0.338615 0.355599
vt 0.339496 0.354286
vt 0.294744 0.431785
vt 0.841648 0.431737
vt 0.840198 0.431785
vt 0.864527 0.392109
vt 0.884950 0.354286
vt 0.682709 0.392109
vt 0.478012 0.431737
vt 0.476562 0.431785
vt 0.433067 0.354286
vt 0.614885 0.354286
vt 0.817448 0.392380
vt 0.819266 0.392998
vt 0.818893 0.394883
vt 0.796703 0.354286
vt 0.797617 0.355535
vt 0.796189 0.355557
vt 0.842323 0.354286
vt 0.840886 0.355552
vt 0.839661 0.354286
vt 0.091621 0.394883
vt 0.090176 0.392380
vt 0.091994 0.392998
vt 0.069431 0.354286
vt 0.070345 0.355535
vt 0.068916 0.355557
vt 0.115050 0.354286
vt 0.113614 0.355552
vt 0.112388 0.354286
vt 0.273812 0.392998
vt 0.251249 0.354286
vt 0.252163 0.355535
vt 0.296869 0.354286
vt 0.295432 0.355552
vt 0.314049 0.254588
vt 0.136020 0.256704
vt 0.132232 0.254588
vt 0.136197 0.255947
vt 0.863469 0.255947
vt 0.863292 0.256704
vt 0.859504 0.254588
vt 0.681473 0.256704
vt 0.677685 0.254588
vt 0.681651 0.255947
vt 0.499655 0.256704
vt 0.495867 0.254588
vt 0.499833 0.255947
vt 0.546410 0.257638
vt 0.544323 0.256830
vt 0.545412 0.255817
vt 0.728228 0.257639
vt 0.726141 0.256830
vt 0.727230 0.255817
vt 0.910046 0.257639
vt 0.907960 0.256830
vt 0.909036 0.255825
vt 0.182774 0.257639
vt 0.180688 0.256830
vt 0.181776 0.255817
vt 0.364592 0.257639
vt 0.362505 0.256830
vt 0.363594 0.255817
vt 0.385409 0.274770
vt 0.387367 0.277293
vt 0.385146 0.276478
vt 0.362012 0.314904
vt 0.362614 0.313149
vt 0.365891 0.315513
vt 0.205549 0.277293
vt 0.203328 0.276478
vt 0.180194 0.314904
vt 0.180796 0.313149
vt 0.184073 0.315513
vt 0.930863 0.274770
vt 0.931818 0.275556
vt 0.930653 0.276328
vt 0.907466 0.314904
vt 0.908068 0.313149
vt 0.911015 0.316028
vt 0.749045 0.274770
vt 0.751003 0.277293
vt 0.748782 0.276478
vt 0.725648 0.314904
vt 0.726250 0.313149
vt 0.729527 0.315513
vt 0.569185 0.277293
vt 0.566964 0.276478
vt 0.543830 0.314904
vt 0.544432 0.313149
vt 0.547709 0.315513
vt 0.228636 0.314921
vt 0.226610 0.316313
vt 0.044452 0.313184
vt 0.046818 0.314921
vt 0.044791 0.316313
vt 0.774090 0.314921
vt 0.772064 0.316313
vt 0.589906 0.313184
vt 0.590246 0.316313
vt 0.408088 0.313184
vt 0.410454 0.314921
vt 0.408428 0.316313
vt 0.157678 0.354286
vt 0.161253 0.352832
vt 0.158205 0.355812
vt 0.294755 0.431793
vt 0.296194 0.431737
vt 0.295277 0.435594
vt 0.884951 0.354286
vt 0.888525 0.352832
vt 0.885477 0.355812
vt 0.703132 0.354286
vt 0.706707 0.352832
vt 0.703659 0.355812
vt 0.524889 0.352832
vt 0.339956 0.274777
vt 0.341906 0.274830
vt 0.341933 0.277328
vt 0.158138 0.274777
vt 0.160088 0.274830
vt 0.160115 0.277328
vt 0.885410 0.274777
vt 0.887360 0.274830
vt 0.887387 0.277328
vt 0.703592 0.274777
vt 0.705542 0.274830
vt 0.705569 0.277328
vt 0.521774 0.274777
vt 0.523724 0.274830
vt 0.523751 0.277328
vt 0.316820 0.314921
vt 0.318016 0.316298
vt 0.271365 0.314921
vt 0.272728 0.316237
vt 0.135001 0.314921
vt 0.136198 0.316298
vt 0.089547 0.314921
vt 0.090910 0.316237
vt 0.862274 0.314921
vt 0.863470 0.316298
vt 0.816819 0.314921
vt 0.818182 0.316237
vt 0.680456 0.314921
vt 0.683460 0.314921
vt 0.681652 0.316298
vt 0.635001 0.314921
vt 0.637727 0.314921
vt 0.636364 0.316237
vt 0.498638 0.314921
vt 0.499834 0.316298
vt 0.453183 0.314921
vt 0.455909 0.314921
vt 0.454546 0.316237
vt 0.112937 0.431793
vt 0.114376 0.431737
vt 0.113459 0.435594
vt 0.136364 0.393652
vt 0.135635 0.394916
vt 0.339496 0.354286
vt 0.343071 0.352832
vt 0.340023 0.355812
vt 0.317453 0.394916
vt 0.319073 0.392109
vt 0.318182 0.393652
vt 0.840209 0.431793
vt 0.841648 0.431737
vt 0.840731 0.435594
vt 0.864527 0.392109
vt 0.863636 0.393652
vt 0.862907 0.394916
vt 0.658391 0.431793
vt 0.658913 0.435594
vt 0.682709 0.392109
vt 0.681818 0.393652
vt 0.681089 0.394916
vt 0.476573 0.431793
vt 0.478012 0.431737
vt 0.477095 0.435594
vt 0.500000 0.393652
vt 0.453812 0.392380
vt 0.455257 0.394883
vt 0.453400 0.394325
vt 0.477283 0.352957
vt 0.432552 0.355557
vt 0.429656 0.353041
vt 0.433067 0.354286
vt 0.637075 0.394883
vt 0.635218 0.394325
vt 0.657843 0.354286
vt 0.659102 0.352957
vt 0.611474 0.353041
vt 0.817448 0.392380
vt 0.818893 0.394883
vt 0.817036 0.394325
vt 0.839661 0.354286
vt 0.840920 0.352957
vt 0.796189 0.355557
vt 0.793292 0.353041
vt 0.796703 0.354286
vt 0.090176 0.392380
vt 0.089763 0.394325
vt 0.113647 0.352957
vt 0.115050 0.354286
vt 0.068916 0.355557
vt 0.066019 0.353041
vt 0.069431 0.354286
vt 0.273439 0.394883
vt 0.271582 0.394325
vt 0.295466 0.352957
vt 0.247838 0.353041
vt 0.546410 0.257638
vt 0.544493 0.257644
vt 0.499655 0.256704
vt 0.499833 0.255947
vt 0.501443 0.256798
vt 0.728228 0.257639
vt 0.726311 0.257644
vt 0.726141 0.256830
vt 0.681473 0.256704
vt 0.681651 0.255947
vt 0.683261 0.256798
vt 0.910046 0.257639
vt 0.908129 0.257644
vt 0.863292 0.256704
vt 0.863469 0.255947
vt 0.865079 0.256798
vt 0.182774 0.257639
vt 0.180857 0.257644
vt 0.180688 0.256830
vt 0.136020 0.256704
vt 0.137807 0.256798
vt 0.364592 0.257639
vt 0.362675 0.257644
vt 0.362505 0.256830
vt 0.317837 0.256704
vt 0.319625 0.256798
vt 0.023731 0.277293
vt 0.024051 0.275299
vt 0.021415 0.276758
vt 0.023731 0.277293
vt 0.954132 0.257038
vt 0.386588 0.351844
vt 0.204770 0.351844
vt 0.002662 0.314875
vt 0.022952 0.351844
vt 0.750224 0.351844
vt 0.568406 0.351844
vt 0.228413 0.392994
vt 0.252232 0.434043
vt 0.272728 0.472382
vt 0.410231 0.392994
vt 0.434050 0.434043
vt 0.454546 0.472382
vt 0.046594 0.392994
vt 0.773867 0.392994
vt 0.592049 0.392994
vt 0.070414 0.434043
vt 0.090910 0.472382
vt 0.797686 0.434043
vt 0.818182 0.472382
vt 0.615868 0.434043
vt 0.636364 0.472382
s 0
f 221/1/1 220/2/1 436/3/1
f 279/4/2 486/5/2 488/6/2
f 248/7/3 247/8/3 219/9/3
f 254/10/4 253/11/4 251/12/4
f 336/13/5 144/14/5 146/15/5
f 249/16/6 462/17/6 464/18/6
f 276/19/7 489/20/7 491/21/7
f 369/22/8 371/23/8 234/24/8
f 160/25/9 159/26/9 397/27/9
f 166/28/10 165/29/10 400/29/10
f 151/30/11 150/31/11 391/32/11
f 456/33/12 246/34/12 248/7/12
f 243/35/13 245/36/13 241/37/13
f 232/38/14 235/39/14 234/24/14
f 213/40/15 217/41/15 216/42/15
f 28/43/16 27/44/16 22/45/16
f 3/46/17 6/47/17 26/48/17
f 22/45/16 27/44/16 24/49/16
f 5/50/18 8/51/18 24/49/18
f 25/52/18 5/50/18 24/49/18
f 483/53/19 273/53/19 275/54/19
f 23/55/20 7/56/20 22/45/20
f 21/57/21 9/58/21 30/59/21
f 22/45/16 21/57/16 30/59/16
f 68/60/22 69/61/22 36/62/22
f 66/63/23 68/60/23 37/64/23
f 244/65/24 236/66/24 235/39/24
f 76/67/25 77/68/25 57/69/25
f 76/67/26 46/70/26 47/71/26
f 74/72/27 45/73/27 46/70/27
f 81/74/28 79/75/28 48/76/28
f 80/77/29 81/74/29 50/78/29
f 318/79/30 126/79/30 128/80/30
f 116/81/31 117/82/31 119/83/31
f 110/84/32 135/85/32 137/86/32
f 107/87/33 130/88/33 129/89/33
f 148/90/34 150/31/34 152/91/34
f 147/92/35 149/93/35 116/81/35
f 444/94/36 446/95/36 231/96/36
f 46/70/37 94/97/37 93/98/37
f 38/99/38 95/100/38 97/101/38
f 44/102/39 43/103/39 96/104/39
f 31/105/40 98/106/40 100/107/40
f 37/64/41 36/62/41 99/108/41
f 210/109/42 213/40/42 215/110/42
f 219/9/43 223/111/43 222/112/43
f 52/113/44 89/114/44 91/115/44
f 51/116/45 50/117/45 93/98/45
f 60/118/46 88/119/46 87/120/46
f 26/48/16 25/52/16 24/49/16
f 58/121/47 57/69/47 90/122/47
f 1/123/48 4/124/48 28/43/48
f 27/44/17 3/46/17 26/48/17
f 24/49/16 23/55/16 22/45/16
f 49/125/49 51/116/49 94/97/49
f 70/126/50 72/127/50 65/128/50
f 68/60/51 60/118/51 61/129/51
f 72/127/52 53/130/52 54/131/52
f 70/126/53 52/113/53 53/130/53
f 230/132/54 232/38/54 231/96/54
f 282/133/55 284/134/55 520/135/55
f 74/72/56 76/67/56 58/121/56
f 72/127/57 73/136/57 64/137/57
f 73/136/58 71/138/58 62/139/58
f 24/49/16 27/44/16 26/48/16
f 66/63/59 59/140/59 60/118/59
f 29/141/48 1/123/48 28/43/48
f 7/56/20 10/142/20 22/45/20
f 69/61/60 67/143/60 34/144/60
f 80/77/61 39/145/61 40/146/61
f 85/147/62 83/148/62 41/149/62
f 84/150/63 85/147/63 43/103/63
f 65/128/64 64/137/64 87/120/64
f 63/151/65 65/128/65 88/119/65
f 157/152/66 156/153/66 394/154/66
f 237/155/67 239/156/67 230/132/67
f 59/140/68 86/157/68 88/119/68
f 82/158/69 31/105/69 32/159/69
f 84/150/70 32/159/70 33/160/70
f 78/161/71 80/77/71 51/162/71
f 82/158/72 84/150/72 44/102/72
f 30/59/16 29/141/16 28/43/16
f 77/68/73 75/163/73 55/164/73
f 78/161/74 38/99/74 39/145/74
f 184/165/75 186/166/75 188/167/75
f 194/168/76 196/169/76 195/170/76
f 348/171/77 172/172/77 171/173/77
f 205/174/78 208/175/78 207/176/78
f 203/177/79 204/178/79 206/179/79
f 238/180/80 242/181/80 241/37/80
f 223/111/81 226/182/81 225/183/81
f 32/159/82 100/107/82 99/108/82
f 39/145/83 97/101/83 96/104/83
f 35/184/84 37/64/84 100/107/84
f 53/130/85 91/115/85 90/122/85
f 42/185/86 44/102/86 97/101/86
f 9/58/87 2/186/87 30/59/87
f 56/187/88 58/121/88 91/115/88
f 45/73/89 92/188/89 94/97/89
f 157/152/90 159/26/90 161/189/90
f 166/28/91 168/190/91 170/191/91
f 165/29/92 167/192/92 107/87/92
f 175/193/93 177/194/93 179/195/93
f 174/196/94 176/197/94 110/84/94
f 252/198/95 227/199/95 226/182/95
f 342/200/96 154/201/96 153/202/96
f 243/35/97 450/203/97 452/204/97
f 196/169/98 199/205/98 198/206/98
f 169/207/99 168/190/99 403/208/99
f 113/209/100 141/210/100 143/211/100
f 187/212/101 189/213/101 191/214/101
f 30/59/16 28/43/16 22/45/16
f 104/215/102 123/216/102 125/217/102
f 151/30/103 153/202/103 155/218/103
f 183/219/104 185/220/104 113/209/104
f 178/221/105 180/222/105 182/223/105
f 160/25/106 162/224/106 164/225/106
f 169/207/107 171/173/107 173/226/107
f 156/153/108 158/227/108 104/215/108
f 148/90/109 147/92/109 388/228/109
f 66/63/110 37/64/110 35/184/110
f 68/60/111 36/62/111 37/64/111
f 69/61/112 34/144/112 36/62/112
f 66/63/113 60/118/113 68/60/113
f 68/60/114 61/129/114 69/61/114
f 70/126/115 65/128/115 63/151/115
f 72/127/116 64/137/116 65/128/116
f 73/136/117 62/139/117 64/137/117
f 70/126/118 53/130/118 72/127/118
f 72/127/119 54/131/119 73/136/119
f 74/72/120 58/121/120 56/187/120
f 76/67/121 57/69/121 58/121/121
f 77/68/122 55/164/122 57/69/122
f 74/72/123 46/70/123 76/67/123
f 76/67/124 47/71/124 77/68/124
f 78/161/125 51/162/125 49/229/125
f 80/77/126 50/78/126 51/162/126
f 81/74/127 48/76/127 50/78/127
f 78/161/128 39/145/128 80/77/128
f 80/77/129 40/146/129 81/74/129
f 82/158/130 44/102/130 42/185/130
f 84/150/131 43/103/131 44/102/131
f 85/147/132 41/149/132 43/103/132
f 82/158/133 32/159/133 84/150/133
f 84/150/134 33/160/134 85/147/134
f 63/151/135 88/119/135 86/157/135
f 65/128/136 87/120/136 88/119/136
f 59/140/137 88/119/137 60/118/137
f 60/118/138 87/120/138 61/129/138
f 56/187/139 91/115/139 89/114/139
f 58/121/140 90/122/140 91/115/140
f 52/113/141 91/115/141 53/130/141
f 53/130/142 90/122/142 54/131/142
f 49/125/143 94/97/143 92/188/143
f 51/116/144 93/98/144 94/97/144
f 45/73/145 94/97/145 46/70/145
f 46/70/146 93/98/146 47/71/146
f 42/185/147 97/101/147 95/100/147
f 44/102/148 96/104/148 97/101/148
f 38/99/149 97/101/149 39/145/149
f 39/145/150 96/104/150 40/146/150
f 35/184/151 100/107/151 98/106/151
f 37/64/152 99/108/152 100/107/152
f 31/105/153 100/107/153 32/159/153
f 32/159/154 99/108/154 33/160/154
f 31/105/155 29/141/155 98/106/155
f 1/123/156 29/141/156 31/105/156
f 1/123/157 31/105/157 82/158/157
f 30/59/158 2/186/158 35/184/158
f 2/186/159 66/63/159 35/184/159
f 34/144/160 67/143/160 11/230/160
f 98/106/161 30/59/161 35/184/161
f 38/99/162 27/44/162 95/100/162
f 3/46/163 27/44/163 38/99/163
f 3/46/164 38/99/164 78/161/164
f 28/43/165 4/124/165 42/185/165
f 4/124/166 82/158/166 42/185/166
f 41/149/167 83/148/167 19/231/167
f 95/100/168 28/43/168 42/185/168
f 45/73/169 25/52/169 92/188/169
f 5/50/170 25/52/170 45/73/170
f 5/50/171 45/73/171 74/72/171
f 26/48/172 6/232/172 49/125/172
f 6/47/173 78/161/173 49/229/173
f 48/76/174 79/75/174 17/233/174
f 92/188/175 26/48/175 49/125/175
f 52/113/176 23/55/176 89/114/176
f 7/56/177 23/55/177 52/113/177
f 7/56/178 52/113/178 70/126/178
f 24/49/179 8/51/179 56/187/179
f 8/51/180 74/72/180 56/187/180
f 55/164/181 75/163/181 15/234/181
f 89/114/182 24/49/182 56/187/182
f 59/140/183 21/57/183 86/157/183
f 9/58/184 21/57/184 59/140/184
f 9/58/185 59/140/185 66/63/185
f 22/45/186 10/142/186 63/151/186
f 10/142/187 70/126/187 63/151/187
f 62/139/188 71/138/188 13/235/188
f 86/157/189 22/45/189 63/151/189
f 2/186/190 9/58/190 66/63/190
f 67/143/191 12/236/191 11/230/191
f 10/142/192 7/56/192 70/126/192
f 71/138/193 14/237/193 13/235/193
f 8/51/194 5/50/194 74/72/194
f 75/163/195 16/238/195 15/234/195
f 6/47/196 3/46/196 78/161/196
f 79/75/197 18/239/197 17/233/197
f 4/124/198 1/123/198 82/158/198
f 83/148/199 20/240/199 19/231/199
f 21/57/200 22/45/200 86/157/200
f 23/55/201 24/49/201 89/114/201
f 25/52/202 26/48/202 92/188/202
f 27/44/203 28/43/203 95/100/203
f 29/141/204 30/59/204 98/106/204
f 102/241/205 103/242/205 104/215/205
f 105/243/206 106/244/206 107/87/206
f 108/245/207 109/246/207 110/84/207
f 111/247/208 112/248/208 113/209/208
f 114/249/209 115/250/209 116/81/209
f 117/82/210 118/251/210 119/83/210
f 120/252/211 121/253/211 122/254/211
f 123/216/212 124/255/212 125/217/212
f 126/79/213 127/256/213 128/80/213
f 129/89/214 130/88/214 131/257/214
f 132/258/215 133/259/215 134/260/215
f 135/85/216 136/261/216 137/86/216
f 138/262/217 139/263/217 140/264/217
f 141/210/218 142/265/218 143/211/218
f 144/14/219 145/266/219 146/15/219
f 147/92/220 148/90/220 149/93/220
f 150/31/221 151/30/221 152/91/221
f 153/202/222 154/201/222 155/218/222
f 156/153/223 157/152/223 158/227/223
f 159/26/224 160/25/224 161/189/224
f 162/224/225 163/267/225 164/225/225
f 165/29/226 166/28/226 167/192/226
f 168/190/227 169/207/227 170/191/227
f 171/173/228 172/172/228 173/226/228
f 174/196/229 175/193/229 176/197/229
f 177/194/230 178/221/230 179/195/230
f 180/222/231 181/268/231 182/223/231
f 183/219/232 184/165/232 185/220/232
f 186/166/233 187/212/233 188/167/233
f 189/213/234 190/269/234 191/214/234
f 192/270/235 193/271/235 194/168/235
f 195/170/236 196/169/236 197/272/236
f 198/206/237 199/205/237 200/273/237
f 201/274/238 202/275/238 203/177/238
f 204/178/239 205/174/239 206/179/239
f 207/176/240 208/175/240 209/276/240
f 210/109/241 211/277/241 212/278/241
f 213/40/242 214/279/242 215/110/242
f 216/42/243 217/41/243 218/280/243
f 219/9/244 220/2/244 221/1/244
f 222/112/245 223/111/245 224/281/245
f 225/183/246 226/182/246 227/199/246
f 228/282/247 229/283/247 230/132/247
f 231/96/248 232/38/248 233/94/248
f 234/24/249 235/39/249 236/66/249
f 237/155/250 238/180/250 239/156/250
f 240/284/251 241/37/251 242/181/251
f 243/35/252 244/65/252 245/36/252
f 246/34/253 247/8/253 248/7/253
f 249/16/254 250/285/254 251/12/254
f 252/198/255 253/11/255 254/10/255
f 255/286/256 256/287/256 257/288/256
f 258/289/257 259/290/257 260/291/257
f 261/292/258 262/293/258 263/294/258
f 264/295/259 265/296/259 266/297/259
f 267/298/260 268/299/260 269/300/260
f 270/301/261 271/302/261 272/303/261
f 273/53/262 274/304/262 275/54/262
f 276/19/263 277/305/263 278/306/263
f 279/4/264 280/307/264 281/308/264
f 282/133/265 283/309/265 284/134/265
f 285/310/266 286/311/266 287/312/266
f 288/313/267 289/314/267 290/315/267
f 291/316/268 292/317/268 293/318/268
f 294/319/269 295/320/269 296/321/269
f 297/322/270 298/323/270 299/324/270
f 300/325/271 301/326/271 302/327/271
f 303/328/272 304/329/272 305/330/272
f 306/331/273 307/332/273 308/333/273
f 309/334/274 310/335/274 311/336/274
f 312/337/275 313/338/275 314/339/275
f 315/340/276 316/341/276 317/342/276
f 318/79/277 319/343/277 320/344/277
f 321/345/278 322/346/278 323/347/278
f 324/348/279 325/349/279 326/350/279
f 327/351/280 328/352/280 329/353/280
f 330/354/281 331/355/281 332/356/281
f 333/357/282 334/358/282 335/359/282
f 336/13/283 337/360/283 338/361/283
f 339/362/284 340/363/284 341/364/284
f 342/200/285 343/365/285 344/366/285
f 345/367/286 346/368/286 347/369/286
f 348/171/287 349/370/287 350/371/287
f 351/372/288 352/222/288 353/373/288
f 354/374/289 355/375/289 356/376/289
f 357/377/290 358/378/290 359/379/290
f 360/380/291 361/381/291 362/382/291
f 363/383/292 364/384/292 365/385/292
f 366/386/293 367/387/293 368/388/293
f 369/22/294 370/389/294 371/23/294
f 372/390/295 373/391/295 374/392/295
f 375/393/296 376/394/296 377/395/296
f 378/396/297 379/397/297 380/398/297
f 381/399/298 382/400/298 383/401/298
f 384/402/299 385/403/299 386/404/299
f 387/405/300 388/228/300 389/406/300
f 390/407/301 391/32/301 392/408/301
f 393/409/302 394/154/302 395/410/302
f 396/411/303 397/27/303 398/412/303
f 399/413/304 400/29/304 401/414/304
f 402/415/305 403/208/305 404/416/305
f 405/417/306 406/418/306 407/419/306
f 408/420/307 409/421/307 410/422/307
f 411/423/308 412/219/308 413/424/308
f 414/425/309 415/426/309 416/427/309
f 417/428/310 418/429/310 419/430/310
f 420/272/311 421/431/311 422/432/311
f 423/433/312 424/434/312 425/435/312
f 426/436/313 427/437/313 428/438/313
f 429/439/314 430/440/314 431/441/314
f 432/442/315 433/443/315 434/444/315
f 435/445/316 436/3/316 437/446/316
f 438/447/317 439/448/317 440/449/317
f 441/450/318 442/451/318 443/452/318
f 444/94/319 445/453/319 446/95/319
f 447/454/320 448/455/320 449/456/320
f 450/203/321 451/457/321 452/204/321
f 453/458/322 454/459/322 455/460/322
f 456/33/323 457/461/323 458/462/323
f 459/463/324 460/464/324 461/198/324
f 462/17/325 463/465/325 464/18/325
f 465/466/326 466/467/326 467/468/326
f 468/469/327 469/470/327 470/292/327
f 471/471/328 472/472/328 473/473/328
f 474/474/329 475/295/329 476/475/329
f 477/303/330 478/476/330 479/477/330
f 480/478/331 481/479/331 482/480/331
f 483/53/332 484/481/332 485/482/332
f 486/5/333 487/483/333 488/6/333
f 489/20/334 490/484/334 491/21/334
f 492/485/335 493/486/335 494/323/335
f 495/487/336 496/488/336 497/489/336
f 498/490/337 499/491/337 500/492/337
f 501/493/338 502/494/338 503/495/338
f 504/496/339 505/497/339 506/329/339
f 507/498/340 508/499/340 509/500/340
f 510/501/341 511/502/341 512/503/341
f 513/504/342 514/312/342 515/505/342
f 516/506/343 517/507/343 518/508/343
f 519/509/344 520/135/344 521/510/344
f 116/81/345 119/83/345 114/249/345
f 104/215/346 125/217/346 102/241/346
f 107/87/347 129/89/347 105/243/347
f 110/84/348 137/86/348 108/245/348
f 113/209/349 143/211/349 111/247/349
f 147/92/350 116/81/350 115/250/350
f 148/90/351 152/91/351 149/93/351
f 151/30/352 155/218/352 152/91/352
f 156/153/353 104/215/353 103/242/353
f 157/152/354 161/189/354 158/227/354
f 160/25/355 164/225/355 161/189/355
f 165/29/356 107/87/356 106/244/356
f 166/28/357 170/191/357 167/192/357
f 169/207/358 173/226/358 170/191/358
f 174/196/359 110/84/359 109/246/359
f 175/193/360 179/195/360 176/197/360
f 178/221/361 182/223/361 179/195/361
f 183/219/362 113/209/362 112/248/362
f 184/165/363 188/167/363 185/220/363
f 187/212/364 191/214/364 188/167/364
f 348/171/77 171/173/77 349/370/77
f 194/168/365 195/170/365 192/270/365
f 196/169/366 198/206/366 197/272/366
f 169/207/99 403/208/99 402/415/99
f 203/177/367 206/179/367 201/274/367
f 205/174/368 207/176/368 206/179/368
f 243/35/97 452/204/97 244/65/97
f 210/109/369 215/110/369 211/277/369
f 213/40/370 216/42/370 214/279/370
f 166/28/10 400/29/10 399/413/10
f 219/9/371 222/112/371 220/2/371
f 223/111/372 225/183/372 224/281/372
f 483/53/19 275/54/19 484/481/19
f 230/132/373 231/96/373 228/282/373
f 232/38/374 234/24/374 233/94/374
f 160/25/9 397/27/9 396/411/9
f 282/133/55 520/135/55 519/509/55
f 244/65/375 235/39/375 245/36/375
f 157/152/66 394/154/66 393/409/66
f 243/35/376 241/37/376 240/284/376
f 369/22/8 234/24/8 236/66/8
f 237/155/377 230/132/377 229/283/377
f 318/79/30 128/80/30 319/343/30
f 238/180/378 241/37/378 239/156/378
f 456/33/12 248/7/12 457/461/12
f 276/19/7 491/21/7 277/305/7
f 342/200/379 153/202/379 343/365/379
f 444/94/36 231/96/36 233/94/36
f 151/30/11 391/32/11 390/407/11
f 249/16/6 464/18/6 250/285/6
f 279/4/2 488/6/2 280/307/2
f 148/90/109 388/228/109 387/405/109
f 252/198/380 226/182/380 253/11/380
f 336/13/5 146/15/5 337/360/5
f 254/10/381 251/12/381 250/285/381
f 221/1/1 436/3/1 435/445/1
f 248/7/382 219/9/382 221/1/382
f 438/447/383 222/112/383 224/281/383
f 246/34/384 251/12/384 247/8/384
f 225/183/385 366/386/385 368/388/385
f 254/10/386 461/198/386 252/198/386
f 291/316/387 502/494/387 501/493/387
f 109/246/388 334/358/388 333/357/388
f 381/399/389 137/86/389 136/261/389
f 432/442/390 215/110/390 214/279/390
f 506/329/391 303/328/391 504/496/391
f 465/466/392 257/288/392 466/467/392
f 261/292/393 217/41/393 262/293/393
f 430/440/394 212/278/394 211/277/394
f 263/294/395 259/290/395 258/289/395
f 106/244/396 328/352/396 327/351/396
f 257/288/397 210/109/397 212/278/397
f 209/276/398 361/381/398 360/380/398
f 255/286/399 259/290/399 256/287/399
f 205/174/400 427/437/400 426/436/400
f 423/433/401 203/177/401 202/275/401
f 324/348/402 134/260/402 325/349/402
f 162/224/403 345/367/403 163/267/403
f 285/310/404 514/312/404 513/504/404
f 306/331/405 512/503/405 307/332/405
f 260/291/406 473/473/406 258/289/406
f 103/242/407 322/346/407 321/345/407
f 270/301/408 199/205/408 271/302/408
f 375/393/409 125/217/409 124/255/409
f 272/303/410 268/299/410 267/298/410
f 357/377/411 198/206/411 200/273/411
f 264/295/412 194/168/412 193/271/412
f 216/42/413 363/383/413 365/385/413
f 265/296/414 268/299/414 266/297/414
f 263/294/415 470/292/415 261/292/415
f 115/250/416 316/341/416 315/340/416
f 372/390/417 119/83/417 118/251/417
f 143/211/418 384/402/418 386/404/418
f 420/272/419 195/170/419 197/272/419
f 518/508/420 309/334/420 516/506/420
f 312/337/421 122/254/421 313/338/421
f 354/374/422 189/213/422 355/375/422
f 280/307/423 201/274/423 281/308/423
f 414/425/424 186/166/424 415/426/424
f 279/4/425 278/306/425 277/305/425
f 455/460/426 242/181/426 453/458/426
f 275/54/427 207/176/427 209/276/427
f 474/474/428 264/295/428 475/295/428
f 273/53/429 278/306/429 274/304/429
f 418/429/430 193/271/430 192/270/430
f 184/165/431 412/219/431 411/423/431
f 340/363/432 112/248/432 111/247/432
f 294/319/433 496/488/433 495/487/433
f 297/322/434 494/323/434 298/323/434
f 500/492/435 300/325/435 498/490/435
f 191/214/436 122/254/436 121/253/436
f 182/223/437 146/15/437 145/266/437
f 173/226/438 138/262/438 140/264/438
f 164/225/439 134/511/439 133/512/439
f 155/218/440 128/80/440 127/256/440
f 138/262/441 330/354/441 139/263/441
f 351/372/442 180/222/442 352/222/442
f 447/454/443 237/155/443 448/455/443
f 442/451/444 229/283/444 228/282/444
f 479/477/445 272/303/445 477/303/445
f 296/321/446 299/324/446 298/323/446
f 293/318/447 302/327/447 301/326/447
f 288/313/448 305/330/448 304/329/448
f 287/312/449 308/333/449 307/332/449
f 284/134/450 311/336/450 310/335/450
f 117/82/451 282/133/451 118/251/451
f 269/300/452 482/480/452 267/298/452
f 309/334/453 121/253/453 120/252/453
f 123/216/454 285/310/454 124/255/454
f 129/89/455 378/396/455 380/398/455
f 306/331/456 127/256/456 126/79/456
f 130/88/457 289/314/457 131/257/457
f 508/499/458 289/314/458 288/313/458
f 303/328/459 133/259/459 132/258/459
f 135/85/460 291/316/460 136/261/460
f 408/420/461 177/194/461 409/421/461
f 300/325/462 140/264/462 139/263/462
f 141/210/463 294/319/463 142/265/463
f 406/418/464 175/193/464 174/196/464
f 297/322/465 145/266/465 144/14/465
f 316/341/466 373/391/466 317/342/466
f 322/346/467 376/394/467 323/347/467
f 328/352/468 379/397/468 329/353/468
f 334/358/469 382/400/469 335/359/469
f 340/363/470 385/403/470 341/364/470
f 389/406/471 315/340/471 317/342/471
f 389/406/472 391/32/472 387/405/472
f 392/408/473 343/365/473 390/407/473
f 395/410/474 321/345/474 323/347/474
f 395/410/475 397/27/475 393/409/475
f 398/412/476 346/368/476 396/411/476
f 401/414/477 327/351/477 329/353/477
f 401/414/478 403/208/478 399/413/478
f 404/416/479 349/370/479 402/415/479
f 407/419/480 333/357/480 335/359/480
f 407/419/481 409/421/481 405/417/481
f 410/422/482 352/222/482 408/420/482
f 413/424/483 339/362/483 341/364/483
f 413/424/484 415/426/484 411/423/484
f 416/427/485 355/375/485 414/425/485
f 418/429/486 421/431/486 419/430/486
f 359/379/487 421/431/487 420/272/487
f 428/438/488 425/435/488 424/434/488
f 428/438/489 361/381/489 426/436/489
f 430/440/490 433/443/490 431/441/490
f 365/385/491 433/443/491 432/442/491
f 436/3/492 439/448/492 437/446/492
f 368/388/493 439/448/493 438/447/493
f 442/451/494 445/453/494 443/452/494
f 371/23/495 445/453/495 444/94/495
f 451/457/496 369/22/496 452/204/496
f 451/457/497 455/460/497 454/459/497
f 449/456/498 441/450/498 443/452/498
f 449/456/499 453/458/499 447/454/499
f 460/464/500 366/386/500 461/198/500
f 460/464/501 464/18/501 463/465/501
f 458/462/502 435/445/502 437/446/502
f 458/462/503 462/17/503 456/33/503
f 469/470/504 363/383/504 470/292/504
f 469/470/505 473/473/505 472/472/505
f 467/468/506 429/439/506 431/441/506
f 467/468/507 471/471/507 465/466/507
f 478/476/508 357/377/508 479/477/508
f 478/476/509 482/480/509 481/479/509
f 476/475/510 417/428/510 419/430/510
f 476/475/511 480/478/511 474/474/511
f 487/483/512 423/433/512 488/6/512
f 487/483/513 491/21/513 490/484/513
f 485/482/514 360/380/514 362/382/514
f 485/482/515 489/20/515 483/53/515
f 354/374/516 314/339/516 313/338/516
f 351/372/517 338/361/517 337/360/517
f 348/171/518 332/356/518 331/355/518
f 345/367/519 326/513/519 325/514/519
f 342/200/520 320/344/520 319/343/520
f 497/489/521 494/323/521 493/486/521
f 503/495/522 500/492/522 499/491/522
f 509/500/523 506/329/523 505/497/523
f 515/505/524 512/503/524 511/502/524
f 521/510/525 518/508/525 517/507/525
f 372/390/526 521/510/526 373/391/526
f 517/507/527 312/337/527 314/339/527
f 375/393/528 515/505/528 376/394/528
f 511/502/529 318/79/529 320/344/529
f 378/396/530 509/500/530 379/397/530
f 505/497/531 324/348/531 326/350/531
f 381/399/532 503/495/532 382/400/532
f 499/491/533 330/354/533 332/356/533
f 384/402/534 497/489/534 385/403/534
f 493/486/535 336/13/535 338/361/535
f 123/216/536 104/215/536 158/227/536
f 156/153/537 321/345/537 394/154/537
f 102/241/538 377/395/538 322/346/538
f 130/88/539 107/87/539 167/192/539
f 165/29/540 327/351/540 400/29/540
f 105/243/541 380/398/541 328/352/541
f 135/85/542 110/84/542 176/197/542
f 174/196/543 333/357/543 406/418/543
f 108/245/544 383/401/544 334/358/544
f 141/210/545 113/209/545 185/220/545
f 183/219/546 339/362/546 412/219/546
f 111/247/547 386/404/547 340/363/547
f 117/82/548 116/81/548 149/93/548
f 147/92/549 315/340/549 388/228/549
f 114/249/550 374/392/550 316/341/550
f 283/309/551 117/82/551 20/240/551
f 20/240/552 117/82/552 149/93/552
f 118/251/553 519/509/553 372/390/553
f 190/269/554 313/338/554 122/254/554
f 121/253/555 11/230/555 191/214/555
f 311/336/556 34/144/556 121/253/556
f 34/144/557 11/230/557 121/253/557
f 120/252/558 516/506/558 309/334/558
f 286/311/559 123/216/559 18/239/559
f 18/239/560 123/216/560 158/227/560
f 124/255/561 513/504/561 375/393/561
f 154/201/562 319/343/562 128/80/562
f 127/256/563 19/231/563 155/218/563
f 308/333/564 41/149/564 127/256/564
f 41/149/565 19/231/565 127/256/565
f 126/79/566 510/501/566 306/331/566
f 290/315/567 130/88/567 16/238/567
f 16/238/568 130/88/568 167/192/568
f 131/257/569 507/498/569 378/396/569
f 163/267/570 325/514/570 134/511/570
f 133/512/571 17/233/571 164/225/571
f 305/330/572 48/515/572 133/259/572
f 48/76/573 17/233/573 133/512/573
f 132/258/574 504/496/574 303/328/574
f 292/317/575 135/85/575 14/237/575
f 14/237/576 135/85/576 176/197/576
f 136/261/577 501/493/577 381/399/577
f 140/264/578 15/234/578 173/226/578
f 139/263/579 498/490/579 300/325/579
f 302/327/580 55/164/580 140/264/580
f 55/164/581 15/234/581 140/264/581
f 172/172/582 331/355/582 138/262/582
f 295/320/583 141/210/583 12/236/583
f 12/236/584 141/210/584 185/220/584
f 142/265/585 495/487/585 384/402/585
f 181/268/586 337/360/586 146/15/586
f 145/266/587 13/235/587 182/223/587
f 299/324/588 62/139/588 145/266/588
f 62/139/589 13/235/589 145/266/589
f 144/14/590 492/485/590 297/322/590
f 20/240/591 149/93/591 152/91/591
f 150/31/592 387/405/592 391/32/592
f 19/231/593 152/91/593 155/218/593
f 151/30/594 343/365/594 153/202/594
f 19/231/595 20/240/595 152/91/595
f 18/239/596 158/227/596 161/189/596
f 159/26/597 393/409/597 397/27/597
f 17/233/598 161/189/598 164/225/598
f 160/25/599 346/368/599 162/224/599
f 17/233/600 18/239/600 161/189/600
f 16/238/601 167/192/601 170/191/601
f 168/190/602 399/413/602 403/208/602
f 15/234/603 170/191/603 173/226/603
f 169/207/604 349/370/604 171/173/604
f 15/234/605 16/238/605 170/191/605
f 177/194/606 405/417/606 409/421/606
f 14/237/607 176/197/607 179/195/607
f 13/235/608 179/195/608 182/223/608
f 13/235/609 14/237/609 179/195/609
f 178/221/610 352/222/610 180/222/610
f 12/236/611 185/220/611 188/167/611
f 186/166/612 411/423/612 415/426/612
f 11/230/613 188/167/613 191/214/613
f 187/212/614 355/375/614 189/213/614
f 11/230/615 12/236/615 188/167/615
f 192/270/419 422/432/419 418/429/419
f 266/297/616 196/169/616 194/168/616
f 193/271/617 475/295/617 264/295/617
f 197/272/419 359/379/419 420/272/419
f 266/297/618 271/302/618 196/169/618
f 271/302/619 199/205/619 196/169/619
f 270/301/620 357/377/620 200/273/620
f 204/178/400 425/435/400 427/437/400
f 280/307/621 423/433/621 202/275/621
f 281/308/622 201/274/622 206/179/622
f 274/304/623 206/179/623 207/176/623
f 208/175/400 426/436/400 361/381/400
f 274/304/624 281/308/624 206/179/624
f 209/276/625 484/481/625 275/54/625
f 211/277/390 434/444/390 430/440/390
f 212/278/626 466/467/626 257/288/626
f 256/287/627 213/40/627 210/109/627
f 256/287/628 262/293/628 213/40/628
f 262/293/629 217/41/629 213/40/629
f 214/279/390 365/385/390 432/442/390
f 261/292/630 363/383/630 218/280/630
f 220/2/383 440/449/383 436/3/383
f 221/1/631 457/461/631 248/7/631
f 247/8/632 223/111/632 219/9/632
f 253/11/633 226/182/633 223/111/633
f 224/281/383 368/388/383 438/447/383
f 247/8/634 253/11/634 223/111/634
f 252/198/635 366/386/635 227/199/635
f 228/282/36 446/95/36 442/451/36
f 239/156/636 232/38/636 230/132/636
f 229/283/637 448/455/637 237/155/637
f 233/94/36 371/23/36 444/94/36
f 239/156/638 245/36/638 232/38/638
f 245/36/639 235/39/639 232/38/639
f 244/65/640 369/22/640 236/66/640
f 238/180/641 453/458/641 242/181/641
f 241/37/642 245/36/642 239/156/642
f 243/35/643 455/460/643 450/203/643
f 251/12/644 253/11/644 247/8/644
f 246/34/645 462/17/645 249/16/645
f 254/10/646 464/18/646 459/463/646
f 255/286/647 471/471/647 260/291/647
f 259/290/648 262/293/648 256/287/648
f 258/289/649 468/469/649 263/294/649
f 265/296/650 480/478/650 269/300/650
f 268/299/651 271/302/651 266/297/651
f 267/298/652 477/303/652 272/303/652
f 278/306/653 281/308/653 274/304/653
f 273/53/654 489/20/654 276/19/654
f 277/305/655 486/5/655 279/4/655
f 284/134/656 518/508/656 520/135/656
f 83/148/657 283/309/657 20/240/657
f 33/160/658 311/336/658 283/309/658
f 85/147/659 283/309/659 83/148/659
f 287/312/660 512/503/660 514/312/660
f 79/75/661 286/311/661 18/239/661
f 40/146/662 308/333/662 286/311/662
f 81/74/663 286/311/663 79/75/663
f 47/71/664 305/330/664 290/315/664
f 77/68/665 290/315/665 75/163/665
f 288/313/666 506/329/666 508/499/666
f 75/163/667 290/315/667 16/238/667
f 293/318/668 500/492/668 502/494/668
f 71/138/669 292/317/669 14/237/669
f 54/131/670 302/327/670 292/317/670
f 73/136/671 292/317/671 71/138/671
f 296/321/672 494/323/672 496/488/672
f 67/143/673 295/320/673 12/236/673
f 61/129/674 299/324/674 295/320/674
f 69/61/675 295/320/675 67/143/675
f 64/137/676 299/324/676 87/120/676
f 57/69/677 302/327/677 90/122/677
f 50/117/678 305/330/678 93/98/678
f 43/103/679 308/333/679 96/104/679
f 36/62/680 311/336/680 99/108/680
f 373/391/681 314/339/681 317/342/681
f 314/339/682 356/376/682 317/342/682
f 373/391/683 517/507/683 314/339/683
f 317/342/684 356/376/684 424/516/684
f 389/406/685 317/342/685 424/434/685
f 376/394/686 320/344/686 323/347/686
f 320/344/687 344/366/687 323/347/687
f 376/394/688 511/502/688 320/344/688
f 323/347/689 344/366/689 358/517/689
f 395/410/690 323/347/690 358/378/690
f 379/397/691 326/350/691 329/353/691
f 326/513/692 347/369/692 329/518/692
f 379/397/693 505/497/693 326/350/693
f 329/518/694 347/369/694 364/519/694
f 401/414/695 329/353/695 364/384/695
f 382/400/696 332/356/696 335/359/696
f 332/356/697 350/371/697 335/359/697
f 382/400/698 499/491/698 332/356/698
f 335/359/699 350/371/699 367/520/699
f 407/419/700 335/359/700 367/387/700
f 385/403/701 338/361/701 341/364/701
f 338/361/702 353/373/702 341/364/702
f 385/403/703 493/486/703 338/361/703
f 341/364/704 353/373/704 370/521/704
f 413/424/705 341/364/705 370/389/705
f 344/366/706 392/408/706 490/484/706
f 358/517/707 344/366/707 490/484/707
f 347/369/708 398/412/708 481/479/708
f 364/519/709 347/369/709 481/479/709
f 350/371/710 404/416/710 472/472/710
f 367/520/711 350/371/711 472/472/711
f 353/373/712 410/422/712 463/465/712
f 370/521/713 353/373/713 463/465/713
f 356/376/714 416/427/714 454/459/714
f 424/516/715 356/376/715 454/459/715
f 478/476/716 395/410/716 358/378/716
f 358/517/717 490/484/717 421/522/717
f 419/523/718 362/382/718 101/524/718
f 428/525/719 449/456/719 362/526/719
f 362/526/720 443/452/720 101/527/720
f 362/526/721 449/456/721 443/452/721
f 419/523/722 485/482/722 362/382/722
f 469/470/723 401/414/723 364/384/723
f 364/519/724 481/479/724 433/528/724
f 460/464/725 407/419/725 367/387/725
f 367/520/726 472/472/726 439/529/726
f 451/457/727 413/424/727 370/389/727
f 370/521/728 463/465/728 445/530/728
f 521/510/729 517/507/729 373/391/729
f 515/505/730 511/502/730 376/394/730
f 509/500/731 505/497/731 379/397/731
f 503/495/732 499/491/732 382/400/732
f 497/489/733 493/486/733 385/403/733
f 392/408/734 389/406/734 487/483/734
f 487/483/735 389/406/735 424/434/735
f 490/484/736 392/408/736 487/483/736
f 398/412/737 395/410/737 478/476/737
f 481/479/738 398/412/738 478/476/738
f 404/416/739 401/414/739 469/470/739
f 472/472/740 404/416/740 469/470/740
f 410/422/741 407/419/741 460/464/741
f 463/465/742 410/422/742 460/464/742
f 416/427/743 413/424/743 451/457/743
f 454/459/744 416/427/744 451/457/744
f 431/531/745 419/430/745 101/532/745
f 421/522/746 485/482/746 419/523/746
f 431/531/747 476/475/747 419/430/747
f 421/522/748 490/484/748 485/482/748
f 424/516/749 454/459/749 428/525/749
f 428/525/750 454/459/750 449/456/750
f 437/533/751 431/441/751 101/534/751
f 433/528/752 476/475/752 431/531/752
f 437/533/753 467/468/753 431/441/753
f 433/528/754 481/479/754 476/475/754
f 443/535/755 437/446/755 101/536/755
f 439/529/756 467/468/756 437/533/756
f 443/535/757 458/462/757 437/446/757
f 439/529/758 472/472/758 467/468/758
f 445/530/759 458/462/759 443/535/759
f 445/530/760 463/465/760 458/462/760
f 438/447/383 440/449/383 222/112/383
f 246/34/761 249/16/761 251/12/761
f 225/183/385 227/199/385 366/386/385
f 254/10/386 459/463/386 461/198/386
f 291/316/387 293/318/387 502/494/387
f 109/246/388 108/245/388 334/358/388
f 381/399/389 383/401/389 137/86/389
f 432/442/390 434/444/390 215/110/390
f 506/329/391 304/329/391 303/328/391
f 465/466/392 255/286/392 257/288/392
f 261/292/762 218/280/762 217/41/762
f 430/440/394 429/439/394 212/278/394
f 263/294/763 262/293/763 259/290/763
f 106/244/396 105/243/396 328/352/396
f 257/288/764 256/287/764 210/109/764
f 209/276/398 208/175/398 361/381/398
f 255/286/765 260/291/765 259/290/765
f 205/174/400 204/178/400 427/437/400
f 423/433/401 425/435/401 203/177/401
f 324/348/402 132/258/402 134/260/402
f 162/224/403 346/368/403 345/367/403
f 285/310/404 287/312/404 514/312/404
f 306/331/405 510/501/405 512/503/405
f 260/291/406 471/471/406 473/473/406
f 103/242/407 102/241/407 322/346/407
f 270/301/766 200/273/766 199/205/766
f 375/393/409 377/395/409 125/217/409
f 272/303/767 271/302/767 268/299/767
f 357/377/411 359/379/411 198/206/411
f 264/295/768 266/297/768 194/168/768
f 216/42/413 218/280/413 363/383/413
f 265/296/769 269/300/769 268/299/769
f 263/294/415 468/469/415 470/292/415
f 115/250/416 114/249/416 316/341/416
f 372/390/417 374/392/417 119/83/417
f 143/211/418 142/265/418 384/402/418
f 420/272/419 422/432/419 195/170/419
f 518/508/420 310/335/420 309/334/420
f 312/337/770 120/252/770 122/254/770
f 354/374/422 190/269/422 189/213/422
f 280/307/771 202/275/771 201/274/771
f 414/425/424 187/212/424 186/166/424
f 279/4/772 281/308/772 278/306/772
f 455/460/426 240/284/426 242/181/426
f 275/54/773 274/304/773 207/176/773
f 474/474/428 265/296/428 264/295/428
f 273/53/774 276/19/774 278/306/774
f 418/429/430 417/428/430 193/271/430
f 184/165/431 183/219/431 412/219/431
f 340/363/432 339/362/432 112/248/432
f 294/319/433 296/321/433 496/488/433
f 297/322/434 492/485/434 494/323/434
f 500/492/435 301/326/435 300/325/435
f 191/214/775 190/269/775 122/254/775
f 182/223/776 181/268/776 146/15/776
f 173/226/777 172/172/777 138/262/777
f 164/225/778 163/267/778 134/511/778
f 155/218/779 154/201/779 128/80/779
f 138/262/441 331/355/441 330/354/441
f 351/372/442 181/268/442 180/222/442
f 447/454/443 238/180/443 237/155/443
f 442/451/780 441/450/780 229/283/780
f 479/477/445 270/301/445 272/303/445
f 296/321/781 295/320/781 299/324/781
f 293/318/782 292/317/782 302/327/782
f 288/313/783 290/315/783 305/330/783
f 287/312/784 286/311/784 308/333/784
f 284/134/785 283/309/785 311/336/785
f 117/82/786 283/309/786 282/133/786
f 269/300/452 480/478/452 482/480/452
f 309/334/787 311/336/787 121/253/787
f 123/216/788 286/311/788 285/310/788
f 129/89/455 131/257/455 378/396/455
f 306/331/789 308/333/789 127/256/789
f 130/88/790 290/315/790 289/314/790
f 508/499/458 507/498/458 289/314/458
f 303/328/791 305/330/791 133/259/791
f 135/85/792 292/317/792 291/316/792
f 408/420/461 178/221/461 177/194/461
f 300/325/793 302/327/793 140/264/793
f 141/210/794 295/320/794 294/319/794
f 406/418/464 405/417/464 175/193/464
f 297/322/795 299/324/795 145/266/795
f 316/341/796 374/392/796 373/391/796
f 322/346/797 377/395/797 376/394/797
f 328/352/798 380/398/798 379/397/798
f 334/358/799 383/401/799 382/400/799
f 340/363/800 386/404/800 385/403/800
f 389/406/801 388/228/801 315/340/801
f 389/406/802 392/408/802 391/32/802
f 392/408/803 344/366/803 343/365/803
f 395/410/804 394/154/804 321/345/804
f 395/410/805 398/412/805 397/27/805
f 398/412/806 347/369/806 346/368/806
f 401/414/807 400/29/807 327/351/807
f 401/414/808 404/416/808 403/208/808
f 404/416/809 350/371/809 349/370/809
f 407/419/810 406/418/810 333/357/810
f 407/419/811 410/422/811 409/421/811
f 410/422/812 353/373/812 352/222/812
f 413/424/813 412/219/813 339/362/813
f 413/424/814 416/427/814 415/426/814
f 416/427/815 356/376/815 355/375/815
f 418/429/816 422/432/816 421/431/816
f 359/379/817 358/378/817 421/431/817
f 428/438/818 427/437/818 425/435/818
f 428/438/819 362/382/819 361/381/819
f 430/440/820 434/444/820 433/443/820
f 365/385/821 364/384/821 433/443/821
f 436/3/822 440/449/822 439/448/822
f 368/388/823 367/387/823 439/448/823
f 442/451/824 446/95/824 445/453/824
f 371/23/825 370/389/825 445/453/825
f 451/457/826 370/389/826 369/22/826
f 451/457/827 450/203/827 455/460/827
f 449/456/828 448/455/828 441/450/828
f 449/456/829 454/459/829 453/458/829
f 460/464/830 367/387/830 366/386/830
f 460/464/831 459/463/831 464/18/831
f 458/462/832 457/461/832 435/445/832
f 458/462/833 463/465/833 462/17/833
f 469/470/834 364/384/834 363/383/834
f 469/470/835 468/469/835 473/473/835
f 467/468/836 466/467/836 429/439/836
f 467/468/837 472/472/837 471/471/837
f 478/476/838 358/378/838 357/377/838
f 478/476/839 477/303/839 482/480/839
f 476/475/840 475/295/840 417/428/840
f 476/475/841 481/479/841 480/478/841
f 487/483/842 424/434/842 423/433/842
f 487/483/843 486/5/843 491/21/843
f 485/482/844 484/481/844 360/380/844
f 485/482/845 490/484/845 489/20/845
f 354/374/846 356/376/846 314/339/846
f 351/372/847 353/373/847 338/361/847
f 348/171/848 350/371/848 332/356/848
f 345/367/849 347/369/849 326/513/849
f 342/200/850 344/366/850 320/344/850
f 497/489/851 496/488/851 494/323/851
f 503/495/852 502/494/852 500/492/852
f 509/500/853 508/499/853 506/329/853
f 515/505/854 514/312/854 512/503/854
f 521/510/855 520/135/855 518/508/855
f 372/390/856 519/509/856 521/510/856
f 517/507/857 516/506/857 312/337/857
f 375/393/858 513/504/858 515/505/858
f 511/502/859 510/501/859 318/79/859
f 378/396/860 507/498/860 509/500/860
f 505/497/861 504/496/861 324/348/861
f 381/399/862 501/493/862 503/495/862
f 499/491/863 498/490/863 330/354/863
f 384/402/864 495/487/864 497/489/864
f 493/486/865 492/485/865 336/13/865
f 156/153/537 103/242/537 321/345/537
f 102/241/538 125/217/538 377/395/538
f 165/29/540 106/244/540 327/351/540
f 105/243/541 129/89/541 380/398/541
f 174/196/543 109/246/543 333/357/543
f 108/245/544 137/86/544 383/401/544
f 183/219/546 112/248/546 339/362/546
f 111/247/547 143/211/547 386/404/547
f 147/92/549 115/250/549 315/340/549
f 114/249/550 119/83/550 374/392/550
f 118/251/553 282/133/553 519/509/553
f 190/269/554 354/374/554 313/338/554
f 120/252/558 312/337/558 516/506/558
f 124/255/561 285/310/561 513/504/561
f 154/201/562 342/200/562 319/343/562
f 126/79/566 318/79/566 510/501/566
f 131/257/569 289/314/569 507/498/569
f 163/267/570 345/367/570 325/514/570
f 132/258/574 324/348/574 504/496/574
f 136/261/577 291/316/577 501/493/577
f 139/263/579 330/354/579 498/490/579
f 172/172/582 348/171/582 331/355/582
f 142/265/585 294/319/585 495/487/585
f 181/268/586 351/372/586 337/360/586
f 144/14/590 336/13/590 492/485/590
f 150/31/592 148/90/592 387/405/592
f 151/30/594 390/407/594 343/365/594
f 159/26/597 157/152/597 393/409/597
f 160/25/599 396/411/599 346/368/599
f 168/190/602 166/28/602 399/413/602
f 169/207/604 402/415/604 349/370/604
f 177/194/606 175/193/606 405/417/606
f 178/221/610 408/420/610 352/222/610
f 186/166/612 184/165/612 411/423/612
f 187/212/614 414/425/614 355/375/614
f 192/270/419 195/170/419 422/432/419
f 193/271/617 417/428/617 475/295/617
f 197/272/419 198/206/419 359/379/419
f 270/301/620 479/477/620 357/377/620
f 204/178/400 203/177/400 425/435/400
f 280/307/621 488/6/621 423/433/621
f 208/175/400 205/174/400 426/436/400
f 209/276/625 360/380/625 484/481/625
f 211/277/390 215/110/390 434/444/390
f 212/278/626 429/439/626 466/467/626
f 214/279/390 216/42/390 365/385/390
f 261/292/630 470/292/630 363/383/630
f 220/2/383 222/112/383 440/449/383
f 221/1/631 435/445/631 457/461/631
f 224/281/383 225/183/383 368/388/383
f 252/198/635 461/198/635 366/386/635
f 228/282/36 231/96/36 446/95/36
f 229/283/637 441/450/637 448/455/637
f 233/94/36 234/24/36 371/23/36
f 244/65/640 452/204/640 369/22/640
f 238/180/641 447/454/641 453/458/641
f 243/35/643 240/284/643 455/460/643
f 246/34/645 456/33/645 462/17/645
f 254/10/646 250/285/646 464/18/646
f 255/286/647 465/466/647 471/471/647
f 258/289/649 473/473/649 468/469/649
f 265/296/650 474/474/650 480/478/650
f 267/298/652 482/480/652 477/303/652
f 273/53/654 483/53/654 489/20/654
f 277/305/655 491/21/655 486/5/655
f 284/134/656 310/335/656 518/508/656
f 33/160/866 99/108/866 311/336/866
f 85/147/867 33/160/867 283/309/867
f 287/312/660 307/332/660 512/503/660
f 40/146/868 96/104/868 308/333/868
f 81/74/869 40/146/869 286/311/869
f 47/71/870 93/98/870 305/330/870
f 77/68/871 47/71/871 290/315/871
f 288/313/666 304/329/666 506/329/666
f 293/318/668 301/326/668 500/492/668
f 54/131/872 90/122/872 302/327/872
f 73/136/873 54/131/873 292/317/873
f 296/321/672 298/323/672 494/323/672
f 61/129/874 87/120/874 299/324/874
f 69/61/875 61/129/875 295/320/875
f 64/137/876 62/139/876 299/324/876
f 57/69/877 55/164/877 302/327/877
f 50/117/878 48/515/878 305/330/878
f 43/103/879 41/149/879 308/333/879
f 36/62/880 34/144/880 311/336/880
